<svg width="51" height="58" viewBox="0 0 51 58" fill="none" xmlns="http://www.w3.org/2000/svg">
<path fill-rule="evenodd" clip-rule="evenodd" d="M39.9823 23.5C40.0005 23.2055 40.0098 22.9086 40.0098 22.6098C40.0098 14.5647 33.3137 8 24.9999 8C16.6862 8 9.99011 14.5647 9.99011 22.6098C9.99011 22.9086 9.99935 23.2055 10.0176 23.5H9.01571C8.99872 23.2054 8.99011 22.9085 8.99011 22.6098C8.99011 13.9887 16.158 7 24.9999 7C33.8419 7 41.0098 13.9887 41.0098 22.6098C41.0098 22.9085 41.0012 23.2054 40.9842 23.5H39.9823Z" fill="#F5F5FA"/>
<g filter="url(#filter0_b_395_253)">
<circle cx="24.9901" cy="23.5" r="16" fill="black" fill-opacity="0.4"/>
</g>
<g filter="url(#filter1_i_395_253)">
<circle cx="24.9901" cy="23.5" r="15.25" stroke="url(#paint0_linear_395_253)" stroke-width="1.5"/>
</g>
<g filter="url(#filter2_dd_395_253)">
<path d="M14.1181 23.3121C14.0861 23.0721 14.1421 22.8001 14.2861 22.4961C14.4141 22.2241 14.6221 21.8921 14.9101 21.5001C15.1981 21.1081 15.6301 20.6561 16.2061 20.1441C16.6861 19.7121 17.2261 19.3001 17.8261 18.9081C18.4261 18.5161 19.0941 18.1721 19.8301 17.8761C20.5661 17.5801 21.3701 17.3441 22.2421 17.1681C23.1141 16.9921 24.0541 16.9041 25.0621 16.9041C26.0701 16.9041 27.0141 16.9961 27.8941 17.1801C28.7741 17.3641 29.5861 17.6121 30.3301 17.9241C31.0741 18.2361 31.7541 18.5921 32.3701 18.9921C32.9861 19.3921 33.5421 19.8081 34.0381 20.2401C34.5661 20.7201 34.9621 21.1481 35.2261 21.5241C35.4901 21.9001 35.6861 22.2241 35.8141 22.4961C35.9421 22.8001 36.0061 23.0721 36.0061 23.3121H33.1261C33.1261 23.1361 33.1181 22.9441 33.1021 22.7361C33.0861 22.5601 33.0741 22.3641 33.0661 22.1481C33.0581 21.9321 33.0381 21.7121 33.0061 21.4881C32.9741 21.2801 32.9381 21.0721 32.8981 20.8641C32.8581 20.6561 32.8141 20.4641 32.7661 20.2881C32.7021 20.0961 32.6461 19.9041 32.5981 19.7121L32.4541 19.5681C32.3421 19.4561 32.2141 19.3521 32.0701 19.2561C31.9901 19.2241 31.9021 19.1801 31.8061 19.1241C31.7101 19.0681 31.6221 19.0241 31.5421 18.9921L31.2541 18.8481C31.3021 19.0881 31.3581 19.3441 31.4221 19.6161C31.4701 19.8401 31.5141 20.0921 31.5541 20.3721C31.5941 20.6521 31.6301 20.9281 31.6621 21.2001C31.6941 21.4721 31.7141 21.7361 31.7221 21.9921C31.7301 22.2481 31.7421 22.4721 31.7581 22.6641C31.7741 22.8881 31.7821 23.1041 31.7821 23.3121H29.9341V21.9681H28.9021V22.9761H27.7021V21.9681H26.7421V22.9761H25.5181V21.9681H24.6061V22.9761H23.4541V21.9921H22.4461V22.9761H21.1981V21.9681H20.1661V23.2401L18.2941 23.2641C18.2781 23.1041 18.2781 22.9201 18.2941 22.7121C18.3101 22.5361 18.3261 22.3241 18.3421 22.0761C18.3581 21.8281 18.3901 21.5441 18.4381 21.2241C18.4701 20.9201 18.5101 20.6241 18.5581 20.3361C18.6061 20.0481 18.6541 19.7921 18.7021 19.5681C18.7661 19.3121 18.8221 19.0721 18.8701 18.8481L18.6781 18.9441C18.5181 19.0081 18.3581 19.0801 18.1981 19.1601C18.1021 19.2081 18.0101 19.2641 17.9221 19.3281C17.8341 19.3921 17.7581 19.4481 17.6941 19.4961C17.6141 19.5601 17.5421 19.6161 17.4781 19.6641C17.4301 19.8721 17.3741 20.0801 17.3101 20.2881C17.1981 20.6881 17.1181 21.0881 17.0701 21.4881C17.0381 21.6801 17.0141 21.8841 16.9981 22.1001C16.9821 22.3161 16.9581 22.5121 16.9261 22.6881C16.8941 22.8961 16.8701 23.1041 16.8541 23.3121H14.1181ZM14.1181 23.9361C14.0861 24.1761 14.1421 24.4481 14.2861 24.7521C14.4141 25.0241 14.6221 25.3561 14.9101 25.7481C15.1981 26.1401 15.6301 26.5921 16.2061 27.1041C16.6861 27.5361 17.2261 27.9481 17.8261 28.3401C18.4261 28.7321 19.0941 29.0761 19.8301 29.3721C20.5661 29.6681 21.3701 29.9041 22.2421 30.0801C23.1141 30.2561 24.0541 30.3441 25.0621 30.3441C26.0701 30.3441 27.0141 30.2521 27.8941 30.0681C28.7741 29.8841 29.5861 29.6361 30.3301 29.3241C31.0741 29.0121 31.7541 28.6561 32.3701 28.2561C32.9861 27.8561 33.5421 27.4401 34.0381 27.0081C34.5661 26.5441 34.9621 26.1201 35.2261 25.7361C35.4901 25.3521 35.6861 25.0241 35.8141 24.7521C35.9421 24.4481 36.0061 24.1761 36.0061 23.9361H33.1261C33.1261 24.1441 33.1181 24.3441 33.1021 24.5361C33.0861 24.7121 33.0741 24.9041 33.0661 25.1121C33.0581 25.3201 33.0381 25.5361 33.0061 25.7601C32.9741 25.9841 32.9381 26.1961 32.8981 26.3961C32.8581 26.5961 32.8141 26.7841 32.7661 26.9601C32.7021 27.1521 32.6461 27.3441 32.5981 27.5361L32.4541 27.6801C32.4061 27.7281 32.3501 27.7801 32.2861 27.8361C32.2221 27.8921 32.1501 27.9361 32.0701 27.9681C31.9901 28.0161 31.9021 28.0681 31.8061 28.1241C31.7101 28.1801 31.6221 28.2241 31.5421 28.2561C31.4461 28.3041 31.3501 28.3441 31.2541 28.3761C31.3021 28.1361 31.3581 27.8801 31.4221 27.6081C31.4701 27.3841 31.5141 27.1361 31.5541 26.8641C31.5941 26.5921 31.6301 26.3201 31.6621 26.0481C31.6941 25.7761 31.7141 25.5121 31.7221 25.2561C31.7301 25.0001 31.7421 24.7761 31.7581 24.5841C31.7741 24.3601 31.7821 24.1441 31.7821 23.9361L29.9341 23.9121V25.2801H28.9021V24.2721H27.7021V25.2801H26.7421V24.2721H25.5181V25.2801H24.6061V24.2721H23.4541V25.2561H22.4461V24.2721H21.1981V25.2801H20.1661V23.9841L18.2941 23.9601C18.2781 24.1361 18.2781 24.3281 18.2941 24.5361C18.3101 24.7121 18.3261 24.9281 18.3421 25.1841C18.3581 25.4401 18.3901 25.7201 18.4381 26.0241C18.5181 26.6641 18.6061 27.2081 18.7021 27.6561C18.7661 27.9281 18.8221 28.1761 18.8701 28.4001C18.8061 28.3841 18.7421 28.3521 18.6781 28.3041L18.4621 28.2081L18.1981 28.0641C18.1021 28.0321 18.0101 27.9841 17.9221 27.9201C17.8341 27.8561 17.7581 27.8001 17.6941 27.7521C17.6141 27.6881 17.5421 27.6241 17.4781 27.5601C17.4301 27.3521 17.3741 27.1441 17.3101 26.9361C17.2621 26.7601 17.2181 26.5641 17.1781 26.3481C17.1381 26.1321 17.1021 25.9281 17.0701 25.7361C17.0381 25.5601 17.0141 25.3641 16.9981 25.1481C16.9821 24.9321 16.9581 24.7361 16.9261 24.5601C16.8941 24.3521 16.8701 24.1441 16.8541 23.9361H14.1181Z" fill="#DCDCE0"/>
</g>
<path d="M12.4375 54.5H8.96289V46.0449H12.3613C13.9492 46.0449 14.9043 46.8535 14.9043 48.1543C14.9043 49.0391 14.2539 49.8301 13.4219 49.9707V50.0703C14.5645 50.1875 15.3262 51.002 15.3262 52.1035C15.3262 53.5918 14.2422 54.5 12.4375 54.5ZM10.2754 47.1582V49.625H11.834C12.9941 49.625 13.5977 49.1973 13.5977 48.3945C13.5977 47.6152 13.0293 47.1582 12.0566 47.1582H10.2754ZM10.2754 53.3867H12.1738C13.3574 53.3867 13.9844 52.9062 13.9844 52.0098C13.9844 51.125 13.334 50.6621 12.0977 50.6621H10.2754V53.3867ZM16.8672 54.5V48.1191H18.0801V49.0977H18.1738C18.3555 48.4707 19.0645 48.0137 19.8965 48.0137C20.084 48.0137 20.3242 48.0312 20.459 48.0664V49.3086C20.3535 49.2734 19.9785 49.2324 19.7559 49.2324C18.8008 49.2324 18.127 49.8359 18.127 50.7324V54.5H16.8672ZM24.127 49.0684C23.1953 49.0684 22.5449 49.7246 22.4746 50.7207H25.6973C25.668 49.7188 25.0586 49.0684 24.127 49.0684ZM25.6914 52.7773H26.9043C26.6172 53.9199 25.5977 54.623 24.1387 54.623C22.3105 54.623 21.1914 53.3691 21.1914 51.3301C21.1914 49.291 22.334 47.9961 24.1328 47.9961C25.9082 47.9961 26.9805 49.209 26.9805 51.2129V51.6523H22.4746V51.7227C22.5156 52.8418 23.166 53.5508 24.1738 53.5508C24.9355 53.5508 25.457 53.2754 25.6914 52.7773ZM31.1113 49.0684C30.1797 49.0684 29.5293 49.7246 29.459 50.7207H32.6816C32.6523 49.7188 32.043 49.0684 31.1113 49.0684ZM32.6758 52.7773H33.8887C33.6016 53.9199 32.582 54.623 31.123 54.623C29.2949 54.623 28.1758 53.3691 28.1758 51.3301C28.1758 49.291 29.3184 47.9961 31.1172 47.9961C32.8926 47.9961 33.9648 49.209 33.9648 51.2129V51.6523H29.459V51.7227C29.5 52.8418 30.1504 53.5508 31.1582 53.5508C31.9199 53.5508 32.4414 53.2754 32.6758 52.7773ZM37.8086 54.6055C36.1855 54.6055 35.1602 53.3281 35.1602 51.3066C35.1602 49.291 36.1973 48.0137 37.8086 48.0137C38.6816 48.0137 39.4199 48.4297 39.7656 49.1328H39.8594V45.6289H41.1191V54.5H39.9121V53.4922H39.8125C39.4316 54.1895 38.6875 54.6055 37.8086 54.6055ZM38.166 49.1445C37.1055 49.1445 36.4609 49.9648 36.4609 51.3066C36.4609 52.6602 37.0996 53.4746 38.166 53.4746C39.2266 53.4746 39.8828 52.6484 39.8828 51.3125C39.8828 49.9824 39.2207 49.1445 38.166 49.1445Z" fill="#DCDCE0"/>
<defs>
<filter id="filter0_b_395_253" x="0.990112" y="-0.5" width="48" height="48" filterUnits="userSpaceOnUse" color-interpolation-filters="sRGB">
<feFlood flood-opacity="0" result="BackgroundImageFix"/>
<feGaussianBlur in="BackgroundImageFix" stdDeviation="4"/>
<feComposite in2="SourceAlpha" operator="in" result="effect1_backgroundBlur_395_253"/>
<feBlend mode="normal" in="SourceGraphic" in2="effect1_backgroundBlur_395_253" result="shape"/>
</filter>
<filter id="filter1_i_395_253" x="8.99011" y="7.5" width="32" height="32" filterUnits="userSpaceOnUse" color-interpolation-filters="sRGB">
<feFlood flood-opacity="0" result="BackgroundImageFix"/>
<feBlend mode="normal" in="SourceGraphic" in2="BackgroundImageFix" result="shape"/>
<feColorMatrix in="SourceAlpha" type="matrix" values="0 0 0 0 0 0 0 0 0 0 0 0 0 0 0 0 0 0 127 0" result="hardAlpha"/>
<feMorphology radius="2" operator="dilate" in="SourceAlpha" result="effect1_innerShadow_395_253"/>
<feOffset dy="2"/>
<feGaussianBlur stdDeviation="0.5"/>
<feComposite in2="hardAlpha" operator="arithmetic" k2="-1" k3="1"/>
<feColorMatrix type="matrix" values="0 0 0 0 0.716667 0 0 0 0 1 0 0 0 0 1 0 0 0 1 0"/>
<feBlend mode="normal" in2="shape" result="effect1_innerShadow_395_253"/>
</filter>
<filter id="filter2_dd_395_253" x="0.109375" y="0.904053" width="49.8967" height="45.4399" filterUnits="userSpaceOnUse" color-interpolation-filters="sRGB">
<feFlood flood-opacity="0" result="BackgroundImageFix"/>
<feColorMatrix in="SourceAlpha" type="matrix" values="0 0 0 0 0 0 0 0 0 0 0 0 0 0 0 0 0 0 127 0" result="hardAlpha"/>
<feMorphology radius="2" operator="dilate" in="SourceAlpha" result="effect1_dropShadow_395_253"/>
<feOffset dy="2"/>
<feGaussianBlur stdDeviation="6"/>
<feComposite in2="hardAlpha" operator="out"/>
<feColorMatrix type="matrix" values="0 0 0 0 0.141176 0 0 0 0 0.537255 0 0 0 0 1 0 0 0 0.6 0"/>
<feBlend mode="normal" in2="BackgroundImageFix" result="effect1_dropShadow_395_253"/>
<feColorMatrix in="SourceAlpha" type="matrix" values="0 0 0 0 0 0 0 0 0 0 0 0 0 0 0 0 0 0 127 0" result="hardAlpha"/>
<feMorphology radius="2" operator="dilate" in="SourceAlpha" result="effect2_dropShadow_395_253"/>
<feOffset dy="-2"/>
<feGaussianBlur stdDeviation="6"/>
<feComposite in2="hardAlpha" operator="out"/>
<feColorMatrix type="matrix" values="0 0 0 0 0.141667 0 0 0 0 0.5365 0 0 0 0 1 0 0 0 0.6 0"/>
<feBlend mode="normal" in2="effect1_dropShadow_395_253" result="effect2_dropShadow_395_253"/>
<feBlend mode="normal" in="SourceGraphic" in2="effect2_dropShadow_395_253" result="shape"/>
</filter>
<linearGradient id="paint0_linear_395_253" x1="25.3714" y1="5.9" x2="25.3714" y2="39.9" gradientUnits="userSpaceOnUse">
<stop offset="0.0001" stop-color="#4194F4"/>
<stop offset="1" stop-color="#0F49A0" stop-opacity="0.5"/>
</linearGradient>
</defs>
</svg>
