<svg width="40" height="51" viewBox="0 0 40 51" fill="none" xmlns="http://www.w3.org/2000/svg">
<path fill-rule="evenodd" clip-rule="evenodd" d="M34.9823 17C35.0005 16.7055 35.0098 16.4086 35.0098 16.1098C35.0098 8.06472 28.3137 1.5 19.9999 1.5C11.6862 1.5 4.99011 8.06472 4.99011 16.1098C4.99011 16.4086 4.99935 16.7055 5.01758 17H4.01571C3.99872 16.7054 3.99011 16.4085 3.99011 16.1098C3.99011 7.48873 11.158 0.5 19.9999 0.5C28.8419 0.5 36.0098 7.48873 36.0098 16.1098C36.0098 16.4085 36.0012 16.7054 35.9842 17H34.9823Z" fill="#F5F5FA"/>
<g filter="url(#filter0_b_395_271)">
<circle cx="19.9901" cy="17" r="16" fill="black" fill-opacity="0.4"/>
</g>
<g filter="url(#filter1_i_395_271)">
<circle cx="19.9901" cy="17" r="15.25" stroke="url(#paint0_linear_395_271)" stroke-width="1.5"/>
</g>
<g filter="url(#filter2_dd_395_271)">
<mask id="mask0_395_271" style="mask-type:luminance" maskUnits="userSpaceOnUse" x="13" y="7" width="15" height="19">
<path d="M25.7902 8.5H14.5902C14.378 8.5 14.1745 8.58429 14.0245 8.73431C13.8744 8.88434 13.7902 9.08783 13.7902 9.3V23.7C13.7902 23.9122 13.8744 24.1157 14.0245 24.2657C14.1745 24.4157 14.378 24.5 14.5902 24.5H25.7902C26.0023 24.5 26.2058 24.4157 26.3558 24.2657C26.5059 24.1157 26.5902 23.9122 26.5902 23.7V9.3C26.5902 9.08783 26.5059 8.88434 26.3558 8.73431C26.2058 8.58429 26.0023 8.5 25.7902 8.5Z" fill="white" stroke="white" stroke-width="1.52381" stroke-linecap="round" stroke-linejoin="round"/>
<path d="M16.9902 18.9H22.5902M16.9902 21.3H19.7902" stroke="black" stroke-width="1.52381" stroke-linecap="round" stroke-linejoin="round"/>
<path d="M16.9902 11.7H22.5902V15.7H16.9902V11.7Z" fill="white" stroke="black" stroke-width="1.52381" stroke-linecap="round" stroke-linejoin="round"/>
</mask>
<g mask="url(#mask0_395_271)">
<path d="M10.1902 6.90002H29.3902V26.1H10.1902V6.90002Z" fill="#DCDCE0"/>
</g>
</g>
<path d="M1.08594 39.5449H4.13867C6.64648 39.5449 8.11719 41.0859 8.11719 43.7461C8.11719 46.4473 6.6582 48 4.13867 48H1.08594V39.5449ZM2.39844 40.7402V46.8047H3.99219C5.76172 46.8047 6.78125 45.7031 6.78125 43.7637C6.78125 41.8535 5.74414 40.7402 3.99219 40.7402H2.39844ZM12.3594 42.5684C11.4277 42.5684 10.7773 43.2246 10.707 44.2207H13.9297C13.9004 43.2188 13.291 42.5684 12.3594 42.5684ZM13.9238 46.2773H15.1367C14.8496 47.4199 13.8301 48.123 12.3711 48.123C10.543 48.123 9.42383 46.8691 9.42383 44.8301C9.42383 42.791 10.5664 41.4961 12.3652 41.4961C14.1406 41.4961 15.2129 42.709 15.2129 44.7129V45.1523H10.707V45.2227C10.748 46.3418 11.3984 47.0508 12.4062 47.0508C13.168 47.0508 13.6895 46.7754 13.9238 46.2773ZM17.1699 40.0312H18.4297V41.6484H19.8125V42.709H18.4297V45.9902C18.4297 46.6582 18.7051 46.9512 19.332 46.9512C19.5254 46.9512 19.6367 46.9395 19.8125 46.9219V47.9707C19.6074 48.0059 19.373 48.0352 19.127 48.0352C17.7266 48.0352 17.1699 47.543 17.1699 46.3125V42.709H16.1562V41.6484H17.1699V40.0312ZM23.3809 47.0449C24.3301 47.0449 25.0332 46.4414 25.0332 45.6504V45.1172L23.4746 45.2168C22.5957 45.2754 22.1973 45.5742 22.1973 46.1367C22.1973 46.7109 22.6953 47.0449 23.3809 47.0449ZM23.0586 48.1055C21.8281 48.1055 20.9316 47.3613 20.9316 46.1953C20.9316 45.0469 21.7871 44.3848 23.3047 44.291L25.0332 44.1914V43.6406C25.0332 42.9668 24.5879 42.5859 23.7266 42.5859C23.0234 42.5859 22.5371 42.8438 22.3965 43.2949H21.1777C21.3066 42.1992 22.3379 41.4961 23.7852 41.4961C25.3848 41.4961 26.2871 42.293 26.2871 43.6406V48H25.0742V47.1035H24.9746C24.5938 47.7422 23.8965 48.1055 23.0586 48.1055ZM28.1035 48V41.6191H29.3574V48H28.1035ZM28.7305 40.5C28.2617 40.5 27.916 40.166 27.916 39.7324C27.916 39.293 28.2617 38.959 28.7305 38.959C29.1992 38.959 29.5449 39.293 29.5449 39.7324C29.5449 40.166 29.1992 40.5 28.7305 40.5ZM31.2676 48V39.1289H32.5273V48H31.2676ZM34.2734 43.4238C34.2734 42.293 35.3105 41.4961 36.752 41.4961C38.1875 41.4961 39.125 42.1641 39.248 43.2891H38.041C37.9238 42.8203 37.4668 42.5215 36.752 42.5215C36.0488 42.5215 35.5156 42.8555 35.5156 43.3535C35.5156 43.7344 35.8379 43.9746 36.5293 44.1328L37.5898 44.3789C38.8027 44.6602 39.3711 45.1816 39.3711 46.1191C39.3711 47.3203 38.252 48.123 36.7285 48.123C35.2109 48.123 34.2207 47.4375 34.1094 46.3066H35.3691C35.5273 46.7988 35.9961 47.1035 36.7578 47.1035C37.543 47.1035 38.0996 46.752 38.0996 46.2422C38.0996 45.8613 37.8008 45.6152 37.1621 45.4629L36.0488 45.2051C34.8359 44.918 34.2734 44.373 34.2734 43.4238Z" fill="#DCDCE0"/>
<defs>
<filter id="filter0_b_395_271" x="-4.00989" y="-7" width="48" height="48" filterUnits="userSpaceOnUse" color-interpolation-filters="sRGB">
<feFlood flood-opacity="0" result="BackgroundImageFix"/>
<feGaussianBlur in="BackgroundImageFix" stdDeviation="4"/>
<feComposite in2="SourceAlpha" operator="in" result="effect1_backgroundBlur_395_271"/>
<feBlend mode="normal" in="SourceGraphic" in2="effect1_backgroundBlur_395_271" result="shape"/>
</filter>
<filter id="filter1_i_395_271" x="3.99011" y="1" width="32" height="32" filterUnits="userSpaceOnUse" color-interpolation-filters="sRGB">
<feFlood flood-opacity="0" result="BackgroundImageFix"/>
<feBlend mode="normal" in="SourceGraphic" in2="BackgroundImageFix" result="shape"/>
<feColorMatrix in="SourceAlpha" type="matrix" values="0 0 0 0 0 0 0 0 0 0 0 0 0 0 0 0 0 0 127 0" result="hardAlpha"/>
<feMorphology radius="2" operator="dilate" in="SourceAlpha" result="effect1_innerShadow_395_271"/>
<feOffset dy="2"/>
<feGaussianBlur stdDeviation="0.5"/>
<feComposite in2="hardAlpha" operator="arithmetic" k2="-1" k3="1"/>
<feColorMatrix type="matrix" values="0 0 0 0 0.716667 0 0 0 0 1 0 0 0 0 1 0 0 0 1 0"/>
<feBlend mode="normal" in2="shape" result="effect1_innerShadow_395_271"/>
</filter>
<filter id="filter2_dd_395_271" x="7.69493" y="1.6428" width="24.9905" height="29.7144" filterUnits="userSpaceOnUse" color-interpolation-filters="sRGB">
<feFlood flood-opacity="0" result="BackgroundImageFix"/>
<feColorMatrix in="SourceAlpha" type="matrix" values="0 0 0 0 0 0 0 0 0 0 0 0 0 0 0 0 0 0 127 0" result="hardAlpha"/>
<feMorphology radius="0.761905" operator="dilate" in="SourceAlpha" result="effect1_dropShadow_395_271"/>
<feOffset dy="0.761905"/>
<feGaussianBlur stdDeviation="2.28571"/>
<feComposite in2="hardAlpha" operator="out"/>
<feColorMatrix type="matrix" values="0 0 0 0 0.141176 0 0 0 0 0.537255 0 0 0 0 1 0 0 0 0.6 0"/>
<feBlend mode="normal" in2="BackgroundImageFix" result="effect1_dropShadow_395_271"/>
<feColorMatrix in="SourceAlpha" type="matrix" values="0 0 0 0 0 0 0 0 0 0 0 0 0 0 0 0 0 0 127 0" result="hardAlpha"/>
<feMorphology radius="0.761905" operator="dilate" in="SourceAlpha" result="effect2_dropShadow_395_271"/>
<feOffset dy="-0.761905"/>
<feGaussianBlur stdDeviation="2.28571"/>
<feComposite in2="hardAlpha" operator="out"/>
<feColorMatrix type="matrix" values="0 0 0 0 0.141667 0 0 0 0 0.5365 0 0 0 0 1 0 0 0 0.6 0"/>
<feBlend mode="normal" in2="effect1_dropShadow_395_271" result="effect2_dropShadow_395_271"/>
<feBlend mode="normal" in="SourceGraphic" in2="effect2_dropShadow_395_271" result="shape"/>
</filter>
<linearGradient id="paint0_linear_395_271" x1="20.3714" y1="-0.6" x2="20.3714" y2="33.4" gradientUnits="userSpaceOnUse">
<stop offset="0.0001" stop-color="#4194F4"/>
<stop offset="1" stop-color="#0F49A0" stop-opacity="0.5"/>
</linearGradient>
</defs>
</svg>
