<svg width="47" height="57" viewBox="0 0 47 57" fill="none" xmlns="http://www.w3.org/2000/svg">
<path fill-rule="evenodd" clip-rule="evenodd" d="M38.9823 22.5C39.0005 22.2055 39.0098 21.9086 39.0098 21.6098C39.0098 13.5647 32.3137 7 23.9999 7C15.6862 7 8.99011 13.5647 8.99011 21.6098C8.99011 21.9086 8.99935 22.2055 9.01758 22.5H8.01571C7.99872 22.2054 7.99011 21.9085 7.99011 21.6098C7.99011 12.9887 15.158 6 23.9999 6C32.8419 6 40.0098 12.9887 40.0098 21.6098C40.0098 21.9085 40.0012 22.2054 39.9842 22.5H38.9823Z" fill="#F5F5FA"/>
<g filter="url(#filter0_b_395_262)">
<circle cx="23.9901" cy="22.5" r="16" fill="black" fill-opacity="0.4"/>
</g>
<g filter="url(#filter1_i_395_262)">
<circle cx="23.9901" cy="22.5" r="15.25" stroke="url(#paint0_linear_395_262)" stroke-width="1.5"/>
</g>
<g filter="url(#filter2_dd_395_262)">
<path d="M14.8701 18.7866V21.7666L27.7501 25.1666V21.7866L14.8701 18.7866ZM29.0101 21.6466V29.6666C29.1701 29.6933 29.3501 29.7066 29.5501 29.7066C29.7235 29.7066 29.9235 29.69 30.1501 29.6566C30.3768 29.6233 30.6235 29.5533 30.8901 29.4466C31.1968 29.3266 31.4401 29.16 31.6201 28.9466C31.8001 28.7333 31.9368 28.5266 32.0301 28.3266C32.1368 28.0866 32.1968 27.84 32.2101 27.5866L32.7901 19.0266C32.6968 19.2266 32.5768 19.42 32.4301 19.6066C32.3101 19.78 32.1668 19.96 32.0001 20.1466C31.8335 20.3333 31.6368 20.5 31.4101 20.6466C31.1435 20.8333 30.8668 20.99 30.5801 21.1166C30.2935 21.2433 30.0368 21.3466 29.8101 21.4266C29.5435 21.52 29.2768 21.5933 29.0101 21.6466ZM15.0501 17.8466L32.6301 16.3066C32.5901 16.68 32.5035 17.0466 32.3701 17.4066C32.2635 17.7133 32.1101 18.04 31.9101 18.3866C31.7101 18.7333 31.4435 19.04 31.1101 19.3066C30.6701 19.6666 30.2601 19.9366 29.8801 20.1166C29.5001 20.2966 29.1635 20.4266 28.8701 20.5066C28.5235 20.6 28.2101 20.6466 27.9301 20.6466L15.0501 17.8466ZM25.6101 17.8266C25.4635 17.8266 25.3368 17.88 25.2301 17.9866C25.1235 18.0933 25.0701 18.22 25.0701 18.3666C25.0701 18.5133 25.1235 18.64 25.2301 18.7466C25.3368 18.8533 25.4635 18.9066 25.6101 18.9066C25.7568 18.9066 25.8835 18.8533 25.9901 18.7466C26.0968 18.64 26.1501 18.5133 26.1501 18.3666C26.1501 18.22 26.0968 18.0933 25.9901 17.9866C25.8835 17.88 25.7568 17.8266 25.6101 17.8266ZM27.7501 18.7866C27.5901 18.7866 27.4568 18.8433 27.3501 18.9566C27.2435 19.07 27.1901 19.2 27.1901 19.3466C27.1901 19.5066 27.2435 19.64 27.3501 19.7466C27.4568 19.8533 27.5901 19.9066 27.7501 19.9066C27.8968 19.9066 28.0268 19.8533 28.1401 19.7466C28.2535 19.64 28.3101 19.5066 28.3101 19.3466C28.3101 19.2 28.2535 19.07 28.1401 18.9566C28.0268 18.8433 27.8968 18.7866 27.7501 18.7866ZM28.4701 17.3066C28.3235 17.3066 28.1968 17.36 28.0901 17.4666C27.9835 17.5733 27.9301 17.7 27.9301 17.8466C27.9301 17.9933 27.9835 18.12 28.0901 18.2266C28.1968 18.3333 28.3235 18.3866 28.4701 18.3866C28.6168 18.3866 28.7435 18.3333 28.8501 18.2266C28.9568 18.12 29.0101 17.9933 29.0101 17.8466C29.0101 17.7 28.9568 17.5733 28.8501 17.4666C28.7435 17.36 28.6168 17.3066 28.4701 17.3066ZM30.3701 17.4266C30.2235 17.4266 30.1001 17.4766 30.0001 17.5766C29.9001 17.6766 29.8501 17.8 29.8501 17.9466C29.8501 18.0933 29.9001 18.22 30.0001 18.3266C30.1001 18.4333 30.2235 18.4866 30.3701 18.4866C30.5168 18.4866 30.6435 18.4333 30.7501 18.3266C30.8568 18.22 30.9101 18.0933 30.9101 17.9466C30.9101 17.8 30.8568 17.6766 30.7501 17.5766C30.6435 17.4766 30.5168 17.4266 30.3701 17.4266ZM23.2101 17.8266C23.0635 17.8266 22.9368 17.88 22.8301 17.9866C22.7235 18.0933 22.6701 18.22 22.6701 18.3666C22.6701 18.5133 22.7235 18.64 22.8301 18.7466C22.9368 18.8533 23.0635 18.9066 23.2101 18.9066C23.3568 18.9066 23.4835 18.8533 23.5901 18.7466C23.6968 18.64 23.7501 18.5133 23.7501 18.3666C23.7501 18.22 23.6968 18.0933 23.5901 17.9866C23.4835 17.88 23.3568 17.8266 23.2101 17.8266ZM27.7501 26.4066L14.8701 22.8266V24.4066C14.8701 24.8733 14.9568 25.2333 15.1301 25.4866C15.3035 25.74 15.6235 25.9466 16.0901 26.1066C16.1435 26.1333 16.3535 26.2 16.7201 26.3066C17.0868 26.4133 17.5468 26.5533 18.1001 26.7266C18.6535 26.9 19.2768 27.0933 19.9701 27.3066C20.6635 27.52 21.3701 27.7333 22.0901 27.9466C23.7701 28.4666 25.6568 29.04 27.7501 29.6666V26.4066Z" fill="#E1E1E5"/>
</g>
<path d="M12.1289 53.5H10.8164V45.0449H16.0957V46.2402H12.1289V48.8359H15.7617V49.9961H12.1289V53.5ZM20.2734 48.0684C19.3418 48.0684 18.6914 48.7246 18.6211 49.7207H21.8438C21.8145 48.7188 21.2051 48.0684 20.2734 48.0684ZM21.8379 51.7773H23.0508C22.7637 52.9199 21.7441 53.623 20.2852 53.623C18.457 53.623 17.3379 52.3691 17.3379 50.3301C17.3379 48.291 18.4805 46.9961 20.2793 46.9961C22.0547 46.9961 23.127 48.209 23.127 50.2129V50.6523H18.6211V50.7227C18.6621 51.8418 19.3125 52.5508 20.3203 52.5508C21.082 52.5508 21.6035 52.2754 21.8379 51.7773ZM27.2578 48.0684C26.3262 48.0684 25.6758 48.7246 25.6055 49.7207H28.8281C28.7988 48.7188 28.1895 48.0684 27.2578 48.0684ZM28.8223 51.7773H30.0352C29.748 52.9199 28.7285 53.623 27.2695 53.623C25.4414 53.623 24.3223 52.3691 24.3223 50.3301C24.3223 48.291 25.4648 46.9961 27.2637 46.9961C29.0391 46.9961 30.1113 48.209 30.1113 50.2129V50.6523H25.6055V50.7227C25.6465 51.8418 26.2969 52.5508 27.3047 52.5508C28.0664 52.5508 28.5879 52.2754 28.8223 51.7773ZM33.9551 53.6055C32.332 53.6055 31.3066 52.3281 31.3066 50.3066C31.3066 48.291 32.3438 47.0137 33.9551 47.0137C34.8281 47.0137 35.5664 47.4297 35.9121 48.1328H36.0059V44.6289H37.2656V53.5H36.0586V52.4922H35.959C35.5781 53.1895 34.834 53.6055 33.9551 53.6055ZM34.3125 48.1445C33.252 48.1445 32.6074 48.9648 32.6074 50.3066C32.6074 51.6602 33.2461 52.4746 34.3125 52.4746C35.373 52.4746 36.0293 51.6484 36.0293 50.3125C36.0293 48.9824 35.3672 48.1445 34.3125 48.1445Z" fill="#DCDCE0"/>
<defs>
<filter id="filter0_b_395_262" x="-0.0098877" y="-1.5" width="48" height="48" filterUnits="userSpaceOnUse" color-interpolation-filters="sRGB">
<feFlood flood-opacity="0" result="BackgroundImageFix"/>
<feGaussianBlur in="BackgroundImageFix" stdDeviation="4"/>
<feComposite in2="SourceAlpha" operator="in" result="effect1_backgroundBlur_395_262"/>
<feBlend mode="normal" in="SourceGraphic" in2="effect1_backgroundBlur_395_262" result="shape"/>
</filter>
<filter id="filter1_i_395_262" x="7.99011" y="6.5" width="32" height="32" filterUnits="userSpaceOnUse" color-interpolation-filters="sRGB">
<feFlood flood-opacity="0" result="BackgroundImageFix"/>
<feBlend mode="normal" in="SourceGraphic" in2="BackgroundImageFix" result="shape"/>
<feColorMatrix in="SourceAlpha" type="matrix" values="0 0 0 0 0 0 0 0 0 0 0 0 0 0 0 0 0 0 127 0" result="hardAlpha"/>
<feMorphology radius="2" operator="dilate" in="SourceAlpha" result="effect1_innerShadow_395_262"/>
<feOffset dy="2"/>
<feGaussianBlur stdDeviation="0.5"/>
<feComposite in2="hardAlpha" operator="arithmetic" k2="-1" k3="1"/>
<feColorMatrix type="matrix" values="0 0 0 0 0.716667 0 0 0 0 1 0 0 0 0 1 0 0 0 1 0"/>
<feBlend mode="normal" in2="shape" result="effect1_innerShadow_395_262"/>
</filter>
<filter id="filter2_dd_395_262" x="0.870117" y="0.306641" width="45.92" height="45.4" filterUnits="userSpaceOnUse" color-interpolation-filters="sRGB">
<feFlood flood-opacity="0" result="BackgroundImageFix"/>
<feColorMatrix in="SourceAlpha" type="matrix" values="0 0 0 0 0 0 0 0 0 0 0 0 0 0 0 0 0 0 127 0" result="hardAlpha"/>
<feMorphology radius="2" operator="dilate" in="SourceAlpha" result="effect1_dropShadow_395_262"/>
<feOffset dy="2"/>
<feGaussianBlur stdDeviation="6"/>
<feComposite in2="hardAlpha" operator="out"/>
<feColorMatrix type="matrix" values="0 0 0 0 0.141176 0 0 0 0 0.537255 0 0 0 0 1 0 0 0 0.6 0"/>
<feBlend mode="normal" in2="BackgroundImageFix" result="effect1_dropShadow_395_262"/>
<feColorMatrix in="SourceAlpha" type="matrix" values="0 0 0 0 0 0 0 0 0 0 0 0 0 0 0 0 0 0 127 0" result="hardAlpha"/>
<feMorphology radius="2" operator="dilate" in="SourceAlpha" result="effect2_dropShadow_395_262"/>
<feOffset dy="-2"/>
<feGaussianBlur stdDeviation="6"/>
<feComposite in2="hardAlpha" operator="out"/>
<feColorMatrix type="matrix" values="0 0 0 0 0.141667 0 0 0 0 0.5365 0 0 0 0 1 0 0 0 0.6 0"/>
<feBlend mode="normal" in2="effect1_dropShadow_395_262" result="effect2_dropShadow_395_262"/>
<feBlend mode="normal" in="SourceGraphic" in2="effect2_dropShadow_395_262" result="shape"/>
</filter>
<linearGradient id="paint0_linear_395_262" x1="24.3714" y1="4.9" x2="24.3714" y2="38.9" gradientUnits="userSpaceOnUse">
<stop offset="0.0001" stop-color="#4194F4"/>
<stop offset="1" stop-color="#0F49A0" stop-opacity="0.5"/>
</linearGradient>
</defs>
</svg>
