<svg width="97" height="15" viewBox="0 0 97 15" fill="none" xmlns="http://www.w3.org/2000/svg">
<rect width="97" height="15" fill="url(#paint0_linear_279_361)"/>
<path d="M11.2783 10.4941V11.5H6.88379V4.4541H7.97754V10.4941H11.2783ZM12.5625 11.5V6.18262H13.6074V11.5H12.5625ZM13.085 5.25C12.6943 5.25 12.4062 4.97168 12.4062 4.61035C12.4062 4.24414 12.6943 3.96582 13.085 3.96582C13.4756 3.96582 13.7637 4.24414 13.7637 4.61035C13.7637 4.97168 13.4756 5.25 13.085 5.25ZM15.1504 11.5V6.18262H16.1611V7.03711H16.2393C16.4736 6.43652 17.0107 6.08008 17.7188 6.08008C18.4463 6.08008 18.9492 6.45605 19.1836 7.03711H19.2666C19.5352 6.45605 20.1455 6.08008 20.8828 6.08008C21.957 6.08008 22.582 6.72949 22.582 7.83789V11.5H21.5322V8.11133C21.5322 7.39355 21.1904 7.04199 20.502 7.04199C19.8232 7.04199 19.3789 7.53027 19.3789 8.15527V11.5H18.3486V8.00879C18.3486 7.4082 17.9482 7.04199 17.3232 7.04199C16.6836 7.04199 16.2002 7.56445 16.2002 8.24805V11.5H15.1504ZM24.0762 11.5V6.18262H25.1211V11.5H24.0762ZM24.5986 5.25C24.208 5.25 23.9199 4.97168 23.9199 4.61035C23.9199 4.24414 24.208 3.96582 24.5986 3.96582C24.9893 3.96582 25.2773 4.24414 25.2773 4.61035C25.2773 4.97168 24.9893 5.25 24.5986 5.25ZM27.0352 4.85938H28.085V6.20703H29.2373V7.09082H28.085V9.8252C28.085 10.3818 28.3145 10.626 28.8369 10.626C28.998 10.626 29.0908 10.6162 29.2373 10.6016V11.4756C29.0664 11.5049 28.8711 11.5293 28.666 11.5293C27.499 11.5293 27.0352 11.1191 27.0352 10.0938V7.09082H26.1904V6.20703H27.0352V4.85938ZM32.5967 6.97363C31.8203 6.97363 31.2783 7.52051 31.2197 8.35059H33.9053C33.8809 7.51562 33.373 6.97363 32.5967 6.97363ZM33.9004 10.0645H34.9111C34.6719 11.0166 33.8223 11.6025 32.6064 11.6025C31.083 11.6025 30.1504 10.5576 30.1504 8.8584C30.1504 7.15918 31.1025 6.08008 32.6016 6.08008C34.0811 6.08008 34.9746 7.09082 34.9746 8.76074V9.12695H31.2197V9.18555C31.2539 10.1182 31.7959 10.709 32.6357 10.709C33.2705 10.709 33.7051 10.4795 33.9004 10.0645ZM38.1777 11.5879C36.8252 11.5879 35.9707 10.5234 35.9707 8.83887C35.9707 7.15918 36.835 6.09473 38.1777 6.09473C38.9053 6.09473 39.5205 6.44141 39.8086 7.02734H39.8867V4.10742H40.9365V11.5H39.9307V10.6602H39.8477C39.5303 11.2412 38.9102 11.5879 38.1777 11.5879ZM38.4756 7.03711C37.5918 7.03711 37.0547 7.7207 37.0547 8.83887C37.0547 9.9668 37.5869 10.6455 38.4756 10.6455C39.3594 10.6455 39.9062 9.95703 39.9062 8.84375C39.9062 7.73535 39.3545 7.03711 38.4756 7.03711ZM46.752 6.07C46.342 6.07 45.992 5.77 45.992 5.32C45.992 4.86 46.342 4.56 46.752 4.56C47.152 4.56 47.502 4.86 47.502 5.32C47.502 5.77 47.152 6.07 46.752 6.07ZM46.752 10.96C46.342 10.96 45.992 10.67 45.992 10.21C45.992 9.75 46.342 9.46 46.752 9.46C47.152 9.46 47.502 9.75 47.502 10.21C47.502 10.67 47.152 10.96 46.752 10.96ZM55.6387 4.2832C57.6699 4.2832 58.9199 5.7041 58.9199 7.97461C58.9199 10.2402 57.6797 11.6709 55.6387 11.6709C53.5928 11.6709 52.3477 10.2451 52.3477 7.97461C52.3477 5.69922 53.6172 4.2832 55.6387 4.2832ZM55.6387 5.30371C54.3105 5.30371 53.4658 6.33887 53.4658 7.97461C53.4658 9.60059 54.2861 10.6504 55.6387 10.6504C56.9766 10.6504 57.8018 9.60059 57.8018 7.97461C57.8018 6.33887 56.9766 5.30371 55.6387 5.30371ZM60.2773 11.5V6.18262H61.2881V7.02734H61.3662C61.625 6.43652 62.1523 6.08008 62.9531 6.08008C64.1396 6.08008 64.7939 6.79297 64.7939 8.05762V11.5H63.7441V8.32129C63.7441 7.4668 63.373 7.04199 62.5967 7.04199C61.8203 7.04199 61.3271 7.55957 61.3271 8.38965V11.5H60.2773ZM68.4561 6.97363C67.6797 6.97363 67.1377 7.52051 67.0791 8.35059H69.7646C69.7402 7.51562 69.2324 6.97363 68.4561 6.97363ZM69.7598 10.0645H70.7705C70.5312 11.0166 69.6816 11.6025 68.4658 11.6025C66.9424 11.6025 66.0098 10.5576 66.0098 8.8584C66.0098 7.15918 66.9619 6.08008 68.4609 6.08008C69.9404 6.08008 70.834 7.09082 70.834 8.76074V9.12695H67.0791V9.18555C67.1133 10.1182 67.6553 10.709 68.4951 10.709C69.1299 10.709 69.5645 10.4795 69.7598 10.0645ZM78.2266 8.71191C78.2266 10.5137 77.0303 11.6709 75.1846 11.6709C73.1875 11.6709 71.9277 10.25 71.9277 7.97461C71.9277 5.72852 73.2021 4.2832 75.1748 4.2832C76.7764 4.2832 77.9385 5.19141 78.1777 6.61719H77.0791C76.8057 5.76758 76.1367 5.30371 75.1748 5.30371C73.8711 5.30371 73.0459 6.33398 73.0459 7.96484C73.0459 9.625 73.876 10.6504 75.1992 10.6504C76.3516 10.6504 77.1426 9.94727 77.1523 8.90234V8.75098H75.3359V7.83301H78.2266V8.71191ZM81.7959 6.97363C81.0195 6.97363 80.4775 7.52051 80.4189 8.35059H83.1045C83.0801 7.51562 82.5723 6.97363 81.7959 6.97363ZM83.0996 10.0645H84.1104C83.8711 11.0166 83.0215 11.6025 81.8057 11.6025C80.2822 11.6025 79.3496 10.5576 79.3496 8.8584C79.3496 7.15918 80.3018 6.08008 81.8008 6.08008C83.2803 6.08008 84.1738 7.09082 84.1738 8.76074V9.12695H80.4189V9.18555C80.4531 10.1182 80.9951 10.709 81.835 10.709C82.4697 10.709 82.9043 10.4795 83.0996 10.0645ZM85.4336 11.5V6.18262H86.4443V7.02734H86.5225C86.7812 6.43652 87.3086 6.08008 88.1094 6.08008C89.2959 6.08008 89.9502 6.79297 89.9502 8.05762V11.5H88.9004V8.32129C88.9004 7.4668 88.5293 7.04199 87.7529 7.04199C86.9766 7.04199 86.4834 7.55957 86.4834 8.38965V11.5H85.4336Z" fill="#F5F5FA"/>
<defs>
<linearGradient id="paint0_linear_279_361" x1="-3.00132e-07" y1="1.02273" x2="16.4652" y2="44.4862" gradientUnits="userSpaceOnUse">
<stop stop-color="#67DEFF"/>
<stop offset="1" stop-color="#EE66F9"/>
</linearGradient>
</defs>
</svg>
