<svg width="16" height="16" viewBox="0 0 16 16" fill="none" xmlns="http://www.w3.org/2000/svg">
<g clip-path="url(#clip0_118_423)">
<path fill-rule="evenodd" clip-rule="evenodd" d="M5.99402 3.98967L10.5949 1.33337L12.1324 3.99634L5.99402 3.98967Z" stroke="url(#paint0_linear_118_423)" stroke-width="1.5" stroke-linecap="round" stroke-linejoin="round"/>
<path d="M1.33337 4.66667C1.33337 4.29847 1.63185 4 2.00004 4H14C14.3682 4 14.6667 4.29847 14.6667 4.66667V14C14.6667 14.3682 14.3682 14.6667 14 14.6667H2.00004C1.63185 14.6667 1.33337 14.3682 1.33337 14V4.66667Z" stroke="url(#paint1_linear_118_423)" stroke-width="1.5" stroke-linejoin="round"/>
<path d="M11.75 11H14.6667V7.66663H11.75C10.7835 7.66663 10 8.41283 10 9.33329C10 10.2538 10.7835 11 11.75 11Z" stroke="url(#paint2_linear_118_423)" stroke-width="1.5" stroke-linejoin="round"/>
<path d="M14.6666 5.5V13.5" stroke="url(#paint3_linear_118_423)" stroke-width="1.5" stroke-linecap="round"/>
</g>
<defs>
<linearGradient id="paint0_linear_118_423" x1="5.99402" y1="1.51494" x2="10.3976" y2="5.65843" gradientUnits="userSpaceOnUse">
<stop stop-color="#67DEFF"/>
<stop offset="1" stop-color="#EE66F9"/>
</linearGradient>
<linearGradient id="paint1_linear_118_423" x1="1.33337" y1="4.72727" x2="15.6419" y2="12.0282" gradientUnits="userSpaceOnUse">
<stop stop-color="#67DEFF"/>
<stop offset="1" stop-color="#EE66F9"/>
</linearGradient>
<linearGradient id="paint2_linear_118_423" x1="10" y1="7.8939" x2="14.7579" y2="10.613" gradientUnits="userSpaceOnUse">
<stop stop-color="#67DEFF"/>
<stop offset="1" stop-color="#EE66F9"/>
</linearGradient>
<linearGradient id="paint3_linear_118_423" x1="14.6666" y1="6.04545" x2="16.0157" y2="6.11429" gradientUnits="userSpaceOnUse">
<stop stop-color="#67DEFF"/>
<stop offset="1" stop-color="#EE66F9"/>
</linearGradient>
<clipPath id="clip0_118_423">
<rect width="16" height="16" fill="white"/>
</clipPath>
</defs>
</svg>
