<svg width="44" height="61" viewBox="0 0 44 61" fill="none" xmlns="http://www.w3.org/2000/svg">
<path fill-rule="evenodd" clip-rule="evenodd" d="M36.9823 27C37.0005 26.7055 37.0098 26.4086 37.0098 26.1098C37.0098 18.0647 30.3137 11.5 21.9999 11.5C13.6862 11.5 6.99011 18.0647 6.99011 26.1098C6.99011 26.4086 6.99935 26.7055 7.01758 27H6.01571C5.99872 26.7054 5.99011 26.4085 5.99011 26.1098C5.99011 17.4887 13.158 10.5 21.9999 10.5C30.8419 10.5 38.0098 17.4887 38.0098 26.1098C38.0098 26.4085 38.0012 26.7054 37.9842 27H36.9823Z" fill="#F5F5FA"/>
<g filter="url(#filter0_b_395_244)">
<circle cx="21.9901" cy="27" r="16" fill="black" fill-opacity="0.4"/>
</g>
<g filter="url(#filter1_i_395_244)">
<circle cx="21.9901" cy="27" r="15.25" stroke="url(#paint0_linear_395_244)" stroke-width="1.5"/>
</g>
<g filter="url(#filter2_dd_395_244)">
<path d="M21.9232 17.4852C21.9524 17.4852 21.9888 17.4707 22.0325 17.4415C22.1199 17.3833 22.2365 17.2813 22.3822 17.1356C22.557 16.9753 22.7318 16.8588 22.9067 16.7859C23.0815 16.7131 23.3146 16.7349 23.606 16.8515C23.7517 16.8952 23.8682 16.9571 23.9556 17.0372C24.043 17.1174 24.1268 17.1939 24.2069 17.2667C24.2871 17.3395 24.3745 17.4015 24.4692 17.4525C24.5639 17.5035 24.6841 17.5289 24.8298 17.5289C24.9755 17.5289 25.0993 17.5071 25.2013 17.4634C25.3033 17.4197 25.4016 17.3796 25.4963 17.3432C25.591 17.3068 25.6857 17.2813 25.7804 17.2667C25.8751 17.2521 25.988 17.2667 26.1191 17.3104C26.2648 17.3687 26.3632 17.4525 26.4142 17.5617C26.4652 17.671 26.4797 17.7839 26.4579 17.9005C26.436 18.017 26.385 18.1336 26.3049 18.2501C26.2248 18.3667 26.1264 18.4614 26.0099 18.5342C25.7331 18.709 25.5218 18.8875 25.3761 19.0696C25.2304 19.2517 25.0847 19.4448 24.939 19.6488C24.8662 19.7507 24.7861 19.8673 24.6987 19.9984C24.6112 20.1295 24.5311 20.2607 24.4583 20.3918C24.3709 20.552 24.2762 20.705 24.1742 20.8507H19.6505C19.5485 20.6759 19.4465 20.5083 19.3445 20.3481C19.2571 20.2024 19.1624 20.0567 19.0604 19.911C18.9584 19.7653 18.871 19.6342 18.7982 19.5176C18.6525 19.2991 18.4886 19.1061 18.3065 18.9385C18.1243 18.771 17.9459 18.6216 17.771 18.4905C17.5816 18.3594 17.4505 18.1809 17.3777 17.9551C17.3048 17.7293 17.3704 17.5362 17.5744 17.376C17.6763 17.3031 17.7929 17.274 17.924 17.2886C18.0551 17.3031 18.1935 17.3323 18.3392 17.376C18.4849 17.4197 18.627 17.4634 18.7654 17.5071C18.9038 17.5508 19.0313 17.5581 19.1478 17.5289C19.3518 17.4852 19.5048 17.4088 19.6068 17.2995C19.7087 17.1902 19.8836 17.0555 20.1312 16.8952C20.3206 16.7786 20.5319 16.7386 20.765 16.775C20.9981 16.8114 21.1729 16.8879 21.2895 17.0045C21.3478 17.0773 21.4097 17.1392 21.4752 17.1902C21.5408 17.2412 21.61 17.2886 21.6829 17.3323C21.7557 17.3905 21.8358 17.4415 21.9232 17.4852ZM24.3927 21.856C24.5675 22.0891 24.7861 22.344 25.0483 22.6209C25.2669 22.8685 25.5364 23.149 25.8569 23.4622C26.1774 23.7755 26.5489 24.1069 26.9714 24.4566C27.3211 24.7625 27.6817 25.1231 28.0532 25.5383C28.4247 25.9535 28.7489 26.438 29.0257 26.9916C29.3025 27.5452 29.4955 28.1826 29.6048 28.9038C29.7141 29.6249 29.6959 30.4299 29.5502 31.3186C29.419 32.0471 29.1604 32.7355 28.7744 33.3838C28.3883 34.0321 27.8747 34.5967 27.2337 35.0774C26.5926 35.5582 25.8314 35.9407 24.95 36.2248C24.0685 36.5088 23.0669 36.6509 21.9451 36.6509C20.7941 36.6509 19.7743 36.487 18.8856 36.1592C17.9969 35.8314 17.2429 35.4052 16.6237 34.8808C16.0045 34.3563 15.5128 33.7699 15.1486 33.1215C14.7844 32.4732 14.544 31.8285 14.4274 31.1875C14.2963 30.4736 14.2781 29.7888 14.3728 29.1332C14.4675 28.4776 14.6387 27.8621 14.8864 27.2866C15.134 26.7111 15.4436 26.183 15.8151 25.7022C16.1867 25.2214 16.5909 24.7916 17.028 24.4128C17.4068 24.0778 17.7492 23.7609 18.0551 23.4622C18.3611 23.1635 18.6161 22.8904 18.82 22.6427C19.0677 22.3659 19.2862 22.1036 19.4756 21.856H24.3927ZM22.0762 28.565L21.4862 27.975L21.0272 27.5161C20.8815 27.3704 20.7796 27.2611 20.7213 27.1883C20.6047 27.0863 20.4518 27.0025 20.2624 26.9369C20.073 26.8714 19.9127 26.9115 19.7816 27.0571C19.665 27.2174 19.6359 27.374 19.6942 27.527C19.7524 27.68 19.818 27.8002 19.8909 27.8876L20.2187 28.1935C20.3789 28.3684 20.5537 28.5578 20.7431 28.7617C20.9617 28.9948 21.2021 29.2425 21.4643 29.5048L21.4425 29.9637H19.9564C19.8253 29.9637 19.7124 30.0147 19.6177 30.1167C19.523 30.2186 19.4756 30.3279 19.4756 30.4445C19.4756 30.561 19.5193 30.663 19.6068 30.7504C19.6942 30.8378 19.8107 30.8815 19.9564 30.8815H21.4425V31.6464H19.9564C19.8253 31.6464 19.7124 31.6865 19.6177 31.7666C19.523 31.8467 19.4756 31.9524 19.4756 32.0835C19.4611 32.2 19.5011 32.2984 19.5958 32.3785C19.6905 32.4586 19.8107 32.4987 19.9564 32.4987H21.4425V32.9358C21.457 33.1397 21.5226 33.2818 21.6391 33.3619C21.7557 33.4421 21.9014 33.4821 22.0762 33.4821C22.251 33.4967 22.3931 33.4421 22.5024 33.3182C22.6116 33.1944 22.6663 33.0669 22.6663 32.9358V32.4987H24.196C24.3417 32.4987 24.4619 32.4659 24.5566 32.4004C24.6513 32.3348 24.6914 32.2292 24.6768 32.0835C24.6768 31.7775 24.4728 31.6246 24.0649 31.6246H22.6663L22.6881 30.8815L24.1086 30.8597C24.3126 30.8742 24.4583 30.8342 24.5457 30.7395C24.6331 30.6448 24.6768 30.5319 24.6768 30.4008C24.6768 30.2842 24.6295 30.1786 24.5348 30.0839C24.4401 29.9892 24.2907 29.9418 24.0868 29.9418H22.6663V29.5266C22.9139 29.2935 23.1398 29.0677 23.3437 28.8491C23.5186 28.6743 23.6934 28.4958 23.8682 28.3137C24.043 28.1316 24.1742 28.0041 24.2616 27.9313C24.5967 27.6399 24.6695 27.3849 24.4801 27.1664C24.3781 27.0353 24.247 26.9697 24.0868 26.9697C23.9265 26.9697 23.7808 27.028 23.6497 27.1446C23.5768 27.2028 23.453 27.3085 23.2782 27.4614C23.1033 27.6144 22.9285 27.771 22.7537 27.9313C22.5497 28.1207 22.3239 28.3319 22.0762 28.565Z" fill="#DCDCE0"/>
</g>
<path d="M12.0508 55.7266H13.3516C13.4629 56.5293 14.248 57.0391 15.3789 57.0391C16.4336 57.0391 17.207 56.4941 17.207 55.7441C17.207 55.0996 16.7148 54.7129 15.5957 54.4492L14.5059 54.1855C12.9766 53.8281 12.2793 53.0898 12.2793 51.8477C12.2793 50.3418 13.5098 49.3398 15.3555 49.3398C17.0723 49.3398 18.3262 50.3418 18.4023 51.7656H17.125C17.002 50.9863 16.3223 50.5 15.3379 50.5C14.3008 50.5 13.6094 50.998 13.6094 51.7598C13.6094 52.3633 14.0547 52.709 15.1562 52.9668L16.0879 53.1953C17.8223 53.5996 18.5371 54.3027 18.5371 55.5742C18.5371 57.1914 17.2832 58.2051 15.2793 58.2051C13.4043 58.2051 12.1445 57.2383 12.0508 55.7266ZM22.7383 52.5684C21.8066 52.5684 21.1562 53.2246 21.0859 54.2207H24.3086C24.2793 53.2188 23.6699 52.5684 22.7383 52.5684ZM24.3027 56.2773H25.5156C25.2285 57.4199 24.209 58.123 22.75 58.123C20.9219 58.123 19.8027 56.8691 19.8027 54.8301C19.8027 52.791 20.9453 51.4961 22.7441 51.4961C24.5195 51.4961 25.5918 52.709 25.5918 54.7129V55.1523H21.0859V55.2227C21.127 56.3418 21.7773 57.0508 22.7852 57.0508C23.5469 57.0508 24.0684 56.7754 24.3027 56.2773ZM27.1621 58V49.1289H28.4219V58H27.1621ZM30.373 58V49.1289H31.6328V58H30.373Z" fill="#DCDCE0"/>
<defs>
<filter id="filter0_b_395_244" x="-2.00989" y="3" width="48" height="48" filterUnits="userSpaceOnUse" color-interpolation-filters="sRGB">
<feFlood flood-opacity="0" result="BackgroundImageFix"/>
<feGaussianBlur in="BackgroundImageFix" stdDeviation="4"/>
<feComposite in2="SourceAlpha" operator="in" result="effect1_backgroundBlur_395_244"/>
<feBlend mode="normal" in="SourceGraphic" in2="effect1_backgroundBlur_395_244" result="shape"/>
</filter>
<filter id="filter1_i_395_244" x="5.99011" y="11" width="32" height="32" filterUnits="userSpaceOnUse" color-interpolation-filters="sRGB">
<feFlood flood-opacity="0" result="BackgroundImageFix"/>
<feBlend mode="normal" in="SourceGraphic" in2="BackgroundImageFix" result="shape"/>
<feColorMatrix in="SourceAlpha" type="matrix" values="0 0 0 0 0 0 0 0 0 0 0 0 0 0 0 0 0 0 127 0" result="hardAlpha"/>
<feMorphology radius="2" operator="dilate" in="SourceAlpha" result="effect1_innerShadow_395_244"/>
<feOffset dy="2"/>
<feGaussianBlur stdDeviation="0.5"/>
<feComposite in2="hardAlpha" operator="arithmetic" k2="-1" k3="1"/>
<feColorMatrix type="matrix" values="0 0 0 0 0.716667 0 0 0 0 1 0 0 0 0 1 0 0 0 1 0"/>
<feBlend mode="normal" in2="shape" result="effect1_innerShadow_395_244"/>
</filter>
<filter id="filter2_dd_395_244" x="0.313232" y="0.743896" width="43.3618" height="51.907" filterUnits="userSpaceOnUse" color-interpolation-filters="sRGB">
<feFlood flood-opacity="0" result="BackgroundImageFix"/>
<feColorMatrix in="SourceAlpha" type="matrix" values="0 0 0 0 0 0 0 0 0 0 0 0 0 0 0 0 0 0 127 0" result="hardAlpha"/>
<feMorphology radius="2" operator="dilate" in="SourceAlpha" result="effect1_dropShadow_395_244"/>
<feOffset dy="2"/>
<feGaussianBlur stdDeviation="6"/>
<feComposite in2="hardAlpha" operator="out"/>
<feColorMatrix type="matrix" values="0 0 0 0 0.141176 0 0 0 0 0.537255 0 0 0 0 1 0 0 0 0.6 0"/>
<feBlend mode="normal" in2="BackgroundImageFix" result="effect1_dropShadow_395_244"/>
<feColorMatrix in="SourceAlpha" type="matrix" values="0 0 0 0 0 0 0 0 0 0 0 0 0 0 0 0 0 0 127 0" result="hardAlpha"/>
<feMorphology radius="2" operator="dilate" in="SourceAlpha" result="effect2_dropShadow_395_244"/>
<feOffset dy="-2"/>
<feGaussianBlur stdDeviation="6"/>
<feComposite in2="hardAlpha" operator="out"/>
<feColorMatrix type="matrix" values="0 0 0 0 0.141667 0 0 0 0 0.5365 0 0 0 0 1 0 0 0 0.6 0"/>
<feBlend mode="normal" in2="effect1_dropShadow_395_244" result="effect2_dropShadow_395_244"/>
<feBlend mode="normal" in="SourceGraphic" in2="effect2_dropShadow_395_244" result="shape"/>
</filter>
<linearGradient id="paint0_linear_395_244" x1="22.3714" y1="9.4" x2="22.3714" y2="43.4" gradientUnits="userSpaceOnUse">
<stop offset="0.0001" stop-color="#4194F4"/>
<stop offset="1" stop-color="#0F49A0" stop-opacity="0.5"/>
</linearGradient>
</defs>
</svg>
