<svg width="36" height="52" viewBox="0 0 36 52" fill="none" xmlns="http://www.w3.org/2000/svg">
<g filter="url(#filter0_b_222_537)">
<circle cx="18" cy="18" r="18" fill="url(#paint0_linear_222_537)"/>
</g>
<path d="M14.568 6.09597C14.76 6.06397 14.908 6.14397 15.012 6.33597C15.116 6.52797 15.232 6.73597 15.36 6.95997C15.408 7.07197 15.548 7.28397 15.78 7.59597C16.012 7.90797 16.26 8.23997 16.524 8.59197C16.788 8.94397 17.036 9.27197 17.268 9.57597C17.5 9.87997 17.64 10.08 17.688 10.176C17.816 10.384 17.888 10.548 17.904 10.668C17.92 10.788 17.824 10.84 17.616 10.824C17.52 10.808 17.396 10.82 17.244 10.86C17.092 10.9 16.94 10.952 16.788 11.016C16.636 11.08 16.492 11.156 16.356 11.244C16.22 11.332 16.12 11.408 16.056 11.472C15.976 11.568 15.9 11.612 15.828 11.604C15.756 11.596 15.688 11.552 15.624 11.472C15.56 11.392 15.5 11.292 15.444 11.172C15.388 11.052 15.352 10.928 15.336 10.8C15.304 10.64 15.248 10.408 15.168 10.104C15.088 9.79997 15 9.47597 14.904 9.13197C14.808 8.78797 14.72 8.44797 14.64 8.11197C14.56 7.77597 14.496 7.49597 14.448 7.27197C14.368 6.87197 14.34 6.58397 14.364 6.40797C14.388 6.23197 14.456 6.12797 14.568 6.09597ZM21.528 6.09597C21.64 6.12797 21.708 6.23197 21.732 6.40797C21.756 6.58397 21.728 6.87197 21.648 7.27197C21.6 7.49597 21.536 7.77597 21.456 8.11197C21.376 8.44797 21.288 8.78797 21.192 9.13197C21.096 9.47597 21.008 9.79997 20.928 10.104C20.848 10.408 20.792 10.64 20.76 10.8C20.728 10.928 20.688 11.052 20.64 11.172C20.592 11.292 20.536 11.392 20.472 11.472C20.408 11.552 20.336 11.596 20.256 11.604C20.176 11.612 20.096 11.568 20.016 11.472C19.968 11.408 19.876 11.332 19.74 11.244C19.604 11.156 19.456 11.08 19.296 11.016C19.136 10.952 18.984 10.9 18.84 10.86C18.696 10.82 18.576 10.808 18.48 10.824C18.272 10.84 18.176 10.788 18.192 10.668C18.208 10.548 18.272 10.384 18.384 10.176C18.448 10.08 18.592 9.87997 18.816 9.57597C19.04 9.27197 19.284 8.94397 19.548 8.59197C19.812 8.23997 20.06 7.90797 20.292 7.59597C20.524 7.28397 20.672 7.07197 20.736 6.95997C20.864 6.73597 20.98 6.52797 21.084 6.33597C21.188 6.14397 21.336 6.06397 21.528 6.09597ZM17.472 15.672H18.576L18.6 12.288H18.816C18.896 12.288 18.976 12.284 19.056 12.276C19.136 12.268 19.24 12.264 19.368 12.264C19.48 12.264 19.6 12.304 19.728 12.384L20.112 12.576C20.24 12.656 20.364 12.724 20.484 12.78C20.604 12.836 20.712 12.856 20.808 12.84C20.904 12.84 21.008 12.752 21.12 12.576C21.232 12.4 21.348 12.184 21.468 11.928C21.588 11.672 21.7 11.404 21.804 11.124C21.908 10.844 22.008 10.6 22.104 10.392C22.184 10.184 22.264 9.93597 22.344 9.64797C22.424 9.35997 22.488 9.07997 22.536 8.80797C22.6 8.50397 22.648 8.18397 22.68 7.84797L23.544 7.99197C23.784 8.03997 24.032 8.08797 24.288 8.13597C24.544 8.18397 24.76 8.22397 24.936 8.25597C25.096 8.30397 25.24 8.34397 25.368 8.37597C25.496 8.40797 25.616 8.45997 25.728 8.53197C25.84 8.60397 25.956 8.69597 26.076 8.80797C26.196 8.91997 26.336 9.07197 26.496 9.26397C26.656 9.45597 26.856 9.73997 27.096 10.116C27.336 10.492 27.58 10.888 27.828 11.304C28.076 11.72 28.304 12.112 28.512 12.48C28.72 12.848 28.864 13.12 28.944 13.296C29.056 13.52 29.076 13.664 29.004 13.728C28.932 13.792 28.856 13.856 28.776 13.92C28.68 13.984 28.52 14.092 28.296 14.244C28.072 14.396 27.824 14.56 27.552 14.736C27.28 14.912 27.008 15.076 26.736 15.228C26.464 15.38 26.24 15.488 26.064 15.552C25.888 15.616 25.772 15.636 25.716 15.612C25.66 15.588 25.608 15.536 25.56 15.456C25.528 15.408 25.464 15.316 25.368 15.18C25.272 15.044 25.168 14.9 25.056 14.748C24.944 14.596 24.84 14.452 24.744 14.316C24.648 14.18 24.584 14.096 24.552 14.064C24.488 13.984 24.408 13.98 24.312 14.052C24.216 14.124 24.168 14.288 24.168 14.544C24.168 14.672 24.164 14.892 24.156 15.204C24.148 15.516 24.144 15.904 24.144 16.368V17.88V19.632C24.144 21.28 24.124 22.6 24.084 23.592C24.044 24.584 24.008 25.36 23.976 25.92C23.928 26.56 23.88 27.024 23.832 27.312H12.216C12.168 26.848 12.12 26.336 12.072 25.776C12.04 25.296 12.004 24.728 11.964 24.072C11.924 23.416 11.912 22.704 11.928 21.936V20.04C11.928 19.384 11.924 18.76 11.916 18.168C11.908 17.576 11.9 17.052 11.892 16.596C11.884 16.14 11.88 15.8 11.88 15.576V14.496C11.88 14.224 11.808 14.072 11.664 14.04C11.584 14.024 11.508 14.048 11.436 14.112C11.364 14.176 11.288 14.264 11.208 14.376C11.128 14.488 11.052 14.608 10.98 14.736C10.908 14.864 10.84 14.976 10.776 15.072C10.648 15.248 10.548 15.376 10.476 15.456C10.404 15.536 10.344 15.584 10.296 15.6C10.248 15.616 10.208 15.616 10.176 15.6L9.98397 15.528C9.77597 15.464 9.53197 15.356 9.25197 15.204C8.97197 15.052 8.69997 14.892 8.43597 14.724C8.17197 14.556 7.93997 14.4 7.73997 14.256C7.53997 14.112 7.40797 14.016 7.34397 13.968C7.21597 13.888 7.12397 13.824 7.06797 13.776C7.01197 13.728 7.02397 13.576 7.10397 13.32C7.15197 13.192 7.25997 12.968 7.42797 12.648C7.59597 12.328 7.79597 11.98 8.02797 11.604C8.25997 11.228 8.49597 10.852 8.73597 10.476C8.97597 10.1 9.19197 9.77597 9.38397 9.50397C9.65597 9.10397 9.92397 8.81597 10.188 8.63997C10.452 8.46397 10.768 8.33597 11.136 8.25597C11.312 8.22397 11.532 8.18797 11.796 8.14797C12.06 8.10797 12.304 8.06397 12.528 8.01597C12.8 7.95197 13.08 7.89597 13.368 7.84797C13.432 8.18397 13.496 8.50397 13.56 8.80797C13.624 9.07997 13.684 9.35597 13.74 9.63597C13.796 9.91597 13.856 10.144 13.92 10.32C13.968 10.496 14.048 10.716 14.16 10.98C14.272 11.244 14.388 11.504 14.508 11.76C14.628 12.016 14.748 12.244 14.868 12.444C14.988 12.644 15.088 12.768 15.168 12.816C15.328 12.896 15.512 12.856 15.72 12.696C15.928 12.536 16.168 12.416 16.44 12.336C16.568 12.304 16.696 12.284 16.824 12.276C16.952 12.268 17.064 12.264 17.16 12.264C17.272 12.28 17.376 12.296 17.472 12.312V15.672Z" fill="white"/>
<path d="M6.70508 46.7266H8.00586C8.11719 47.5293 8.90234 48.0391 10.0332 48.0391C11.0879 48.0391 11.8613 47.4941 11.8613 46.7441C11.8613 46.0996 11.3691 45.7129 10.25 45.4492L9.16016 45.1855C7.63086 44.8281 6.93359 44.0898 6.93359 42.8477C6.93359 41.3418 8.16406 40.3398 10.0098 40.3398C11.7266 40.3398 12.9805 41.3418 13.0566 42.7656H11.7793C11.6562 41.9863 10.9766 41.5 9.99219 41.5C8.95508 41.5 8.26367 41.998 8.26367 42.7598C8.26367 43.3633 8.70898 43.709 9.81055 43.9668L10.7422 44.1953C12.4766 44.5996 13.1914 45.3027 13.1914 46.5742C13.1914 48.1914 11.9375 49.2051 9.93359 49.2051C8.05859 49.2051 6.79883 48.2383 6.70508 46.7266ZM16.1914 45.2793L18.7227 42.6191H20.2109L17.5859 45.3555L20.3867 49H18.8398L16.6484 46.1875L16.0918 46.7148V49H14.832V40.1289H16.0918V45.2793H16.1914ZM21.5703 49V42.6191H22.8242V49H21.5703ZM22.1973 41.5C21.7285 41.5 21.3828 41.166 21.3828 40.7324C21.3828 40.293 21.7285 39.959 22.1973 39.959C22.666 39.959 23.0117 40.293 23.0117 40.7324C23.0117 41.166 22.666 41.5 22.1973 41.5ZM24.6758 49V42.6191H25.8887V43.6328H25.9824C26.293 42.9238 26.9258 42.4961 27.8867 42.4961C29.3105 42.4961 30.0957 43.3516 30.0957 44.8691V49H28.8359V45.1855C28.8359 44.1602 28.3906 43.6504 27.459 43.6504C26.5273 43.6504 25.9355 44.2715 25.9355 45.2676V49H24.6758Z" fill="#DCDCE0"/>
<defs>
<filter id="filter0_b_222_537" x="-4" y="-4" width="44" height="44" filterUnits="userSpaceOnUse" color-interpolation-filters="sRGB">
<feFlood flood-opacity="0" result="BackgroundImageFix"/>
<feGaussianBlur in="BackgroundImageFix" stdDeviation="2"/>
<feComposite in2="SourceAlpha" operator="in" result="effect1_backgroundBlur_222_537"/>
<feBlend mode="normal" in="SourceGraphic" in2="effect1_backgroundBlur_222_537" result="shape"/>
</filter>
<linearGradient id="paint0_linear_222_537" x1="-1.11389e-07" y1="2.45455" x2="41.7368" y2="19.4916" gradientUnits="userSpaceOnUse">
<stop stop-color="#67DEFF"/>
<stop offset="1" stop-color="#EE66F9"/>
</linearGradient>
</defs>
</svg>
