<svg width="56" height="53" viewBox="0 0 56 53" fill="none" xmlns="http://www.w3.org/2000/svg">
<g filter="url(#filter0_dd_279_360)">
<path d="M14 19.8866V24.5567L34.125 29.8851V24.5881L14 19.8866ZM36.0938 24.3687V36.9373C36.3438 36.9791 36.625 37 36.9375 37C37.2083 37 37.5208 36.9739 37.875 36.9216C38.2292 36.8694 38.6146 36.7597 39.0312 36.5925C39.5104 36.4045 39.8906 36.1433 40.1719 35.809C40.4531 35.4746 40.6667 35.1507 40.8125 34.8373C40.9792 34.4612 41.0729 34.0746 41.0937 33.6776L42 20.2627C41.8542 20.5761 41.6667 20.8791 41.4375 21.1716C41.25 21.4433 41.026 21.7254 40.7656 22.0179C40.5052 22.3104 40.1979 22.5716 39.8438 22.8015C39.4271 23.094 38.9948 23.3396 38.5469 23.5381C38.099 23.7366 37.6979 23.8985 37.3437 24.0239C36.9271 24.1701 36.5104 24.2851 36.0938 24.3687ZM14.2812 18.4134L41.75 16C41.6875 16.5851 41.5521 17.1597 41.3437 17.7239C41.1771 18.2045 40.9375 18.7164 40.625 19.2597C40.3125 19.803 39.8958 20.2836 39.375 20.7015C38.6875 21.2657 38.0469 21.6888 37.4531 21.9709C36.8594 22.253 36.3333 22.4567 35.875 22.5821C35.3333 22.7284 34.8437 22.8015 34.4062 22.8015L14.2812 18.4134ZM30.7812 18.3821C30.5521 18.3821 30.3542 18.4657 30.1875 18.6328C30.0208 18.8 29.9375 18.9985 29.9375 19.2284C29.9375 19.4582 30.0208 19.6567 30.1875 19.8239C30.3542 19.991 30.5521 20.0746 30.7812 20.0746C31.0104 20.0746 31.2083 19.991 31.375 19.8239C31.5417 19.6567 31.625 19.4582 31.625 19.2284C31.625 18.9985 31.5417 18.8 31.375 18.6328C31.2083 18.4657 31.0104 18.3821 30.7812 18.3821ZM34.125 19.8866C33.875 19.8866 33.6667 19.9754 33.5 20.153C33.3333 20.3306 33.25 20.5343 33.25 20.7642C33.25 21.0149 33.3333 21.2239 33.5 21.391C33.6667 21.5582 33.875 21.6418 34.125 21.6418C34.3542 21.6418 34.5573 21.5582 34.7344 21.391C34.9115 21.2239 35 21.0149 35 20.7642C35 20.5343 34.9115 20.3306 34.7344 20.153C34.5573 19.9754 34.3542 19.8866 34.125 19.8866ZM35.25 17.5672C35.0208 17.5672 34.8229 17.6507 34.6562 17.8179C34.4896 17.9851 34.4062 18.1836 34.4062 18.4134C34.4062 18.6433 34.4896 18.8418 34.6562 19.009C34.8229 19.1761 35.0208 19.2597 35.25 19.2597C35.4792 19.2597 35.6771 19.1761 35.8437 19.009C36.0104 18.8418 36.0938 18.6433 36.0938 18.4134C36.0938 18.1836 36.0104 17.9851 35.8437 17.8179C35.6771 17.6507 35.4792 17.5672 35.25 17.5672ZM38.2187 17.7552C37.9896 17.7552 37.7969 17.8336 37.6406 17.9903C37.4844 18.147 37.4062 18.3403 37.4062 18.5701C37.4062 18.8 37.4844 18.9985 37.6406 19.1657C37.7969 19.3328 37.9896 19.4164 38.2187 19.4164C38.4479 19.4164 38.6458 19.3328 38.8125 19.1657C38.9792 18.9985 39.0625 18.8 39.0625 18.5701C39.0625 18.3403 38.9792 18.147 38.8125 17.9903C38.6458 17.8336 38.4479 17.7552 38.2187 17.7552ZM27.0312 18.3821C26.8021 18.3821 26.6042 18.4657 26.4375 18.6328C26.2708 18.8 26.1875 18.9985 26.1875 19.2284C26.1875 19.4582 26.2708 19.6567 26.4375 19.8239C26.6042 19.991 26.8021 20.0746 27.0312 20.0746C27.2604 20.0746 27.4583 19.991 27.625 19.8239C27.7917 19.6567 27.875 19.4582 27.875 19.2284C27.875 18.9985 27.7917 18.8 27.625 18.6328C27.4583 18.4657 27.2604 18.3821 27.0312 18.3821ZM34.125 31.8284L14 26.2179V28.694C14 29.4254 14.1354 29.9896 14.4062 30.3866C14.6771 30.7836 15.1771 31.1075 15.9062 31.3582C15.9896 31.4 16.3177 31.5045 16.8906 31.6716C17.4635 31.8388 18.1823 32.0582 19.0469 32.3299C19.9115 32.6015 20.8854 32.9045 21.9687 33.2388C23.0521 33.5731 24.1562 33.9075 25.2812 34.2418C27.9062 35.0567 30.8542 35.9552 34.125 36.9373V31.8284Z" fill="#E1E1E5"/>
</g>
<defs>
<filter id="filter0_dd_279_360" x="0" y="0" width="56" height="53" filterUnits="userSpaceOnUse" color-interpolation-filters="sRGB">
<feFlood flood-opacity="0" result="BackgroundImageFix"/>
<feColorMatrix in="SourceAlpha" type="matrix" values="0 0 0 0 0 0 0 0 0 0 0 0 0 0 0 0 0 0 127 0" result="hardAlpha"/>
<feMorphology radius="2" operator="dilate" in="SourceAlpha" result="effect1_dropShadow_279_360"/>
<feOffset dy="2"/>
<feGaussianBlur stdDeviation="6"/>
<feComposite in2="hardAlpha" operator="out"/>
<feColorMatrix type="matrix" values="0 0 0 0 0.141176 0 0 0 0 0.537255 0 0 0 0 1 0 0 0 0.6 0"/>
<feBlend mode="normal" in2="BackgroundImageFix" result="effect1_dropShadow_279_360"/>
<feColorMatrix in="SourceAlpha" type="matrix" values="0 0 0 0 0 0 0 0 0 0 0 0 0 0 0 0 0 0 127 0" result="hardAlpha"/>
<feMorphology radius="2" operator="dilate" in="SourceAlpha" result="effect2_dropShadow_279_360"/>
<feOffset dy="-2"/>
<feGaussianBlur stdDeviation="6"/>
<feComposite in2="hardAlpha" operator="out"/>
<feColorMatrix type="matrix" values="0 0 0 0 0.141667 0 0 0 0 0.5365 0 0 0 0 1 0 0 0 0.6 0"/>
<feBlend mode="normal" in2="effect1_dropShadow_279_360" result="effect2_dropShadow_279_360"/>
<feBlend mode="normal" in="SourceGraphic" in2="effect2_dropShadow_279_360" result="shape"/>
</filter>
</defs>
</svg>
