<svg width="50" height="58" viewBox="0 0 50 58" fill="none" xmlns="http://www.w3.org/2000/svg">
<path fill-rule="evenodd" clip-rule="evenodd" d="M38.3338 29.2308C38.351 28.9589 38.3598 28.6849 38.3598 28.409C38.3598 21.1605 32.3243 15.2315 24.8131 15.2315C17.3018 15.2315 11.2663 21.1605 11.2663 28.409C11.2663 28.6849 11.2751 28.9589 11.2923 29.2308H10.0584C10.0427 28.9588 10.0348 28.6848 10.0348 28.409C10.0348 20.4511 16.6512 14 24.8131 14C32.9749 14 39.5913 20.4511 39.5913 28.409C39.5913 28.6848 39.5834 28.9588 39.5677 29.2308H38.3338Z" fill="#F5F5FA"/>
<g filter="url(#filter0_i_399_283)">
<circle cx="24.804" cy="29.2306" r="13.8455" stroke="url(#paint0_linear_399_283)" stroke-width="1.84728"/>
</g>
<g filter="url(#filter1_dd_399_283)">
<mask id="path-3-inside-1_399_283" fill="white">
<path d="M24.7424 20.4477C24.7693 20.4477 24.8029 20.4343 24.8432 20.4074C24.9239 20.3536 25.0315 20.2595 25.166 20.125C25.3274 19.977 25.4888 19.8695 25.6501 19.8022C25.8115 19.735 26.0267 19.7552 26.2957 19.8627C26.4301 19.9031 26.5377 19.9602 26.6184 20.0342C26.6991 20.1082 26.7764 20.1788 26.8504 20.246C26.9244 20.3133 27.0051 20.3704 27.0925 20.4175C27.1799 20.4646 27.2908 20.4881 27.4253 20.4881C27.5598 20.4881 27.6741 20.4679 27.7683 20.4276C27.8624 20.3872 27.9532 20.3502 28.0406 20.3166C28.128 20.283 28.2154 20.2595 28.3028 20.246C28.3902 20.2326 28.4945 20.246 28.6155 20.2864C28.75 20.3402 28.8408 20.4175 28.8878 20.5183C28.9349 20.6192 28.9483 20.7234 28.9282 20.831C28.908 20.9386 28.8609 21.0462 28.787 21.1538C28.713 21.2614 28.6222 21.3488 28.5146 21.416C28.2591 21.5774 28.0641 21.7421 27.9296 21.9103C27.7952 22.0784 27.6607 22.2565 27.5262 22.4448C27.4589 22.539 27.385 22.6465 27.3043 22.7676C27.2236 22.8886 27.1496 23.0097 27.0824 23.1307C27.0017 23.2786 26.9143 23.4198 26.8201 23.5543H22.6444C22.5503 23.3929 22.4562 23.2383 22.362 23.0903C22.2813 22.9559 22.1939 22.8214 22.0998 22.6869C22.0056 22.5524 21.9249 22.4314 21.8577 22.3238C21.7232 22.1221 21.5719 21.9439 21.4038 21.7892C21.2357 21.6346 21.071 21.4967 20.9096 21.3757C20.7348 21.2546 20.6137 21.0899 20.5465 20.8815C20.4792 20.673 20.5398 20.4948 20.728 20.3469C20.8222 20.2796 20.9298 20.2527 21.0508 20.2662C21.1718 20.2796 21.2996 20.3065 21.4341 20.3469C21.5686 20.3872 21.6997 20.4276 21.8274 20.4679C21.9552 20.5083 22.0729 20.515 22.1805 20.4881C22.3687 20.4477 22.5099 20.3771 22.6041 20.2763C22.6982 20.1754 22.8596 20.051 23.0882 19.9031C23.2631 19.7955 23.4581 19.7585 23.6732 19.7921C23.8884 19.8258 24.0498 19.8964 24.1574 20.0039C24.2112 20.0712 24.2683 20.1283 24.3288 20.1754C24.3894 20.2225 24.4532 20.2662 24.5205 20.3065C24.5877 20.3603 24.6617 20.4074 24.7424 20.4477ZM27.0219 24.4823C27.1833 24.6974 27.385 24.9328 27.627 25.1883C27.8288 25.4169 28.0776 25.6758 28.3734 25.9649C28.6693 26.2541 29.0122 26.56 29.4022 26.8828C29.725 27.1652 30.0578 27.498 30.4008 27.8813C30.7437 28.2646 31.0429 28.7118 31.2984 29.2228C31.554 29.7338 31.7322 30.3222 31.833 30.9879C31.9339 31.6536 31.9171 32.3966 31.7826 33.217C31.6616 33.8894 31.4228 34.5248 31.0665 35.1233C30.7101 35.7217 30.236 36.2428 29.6443 36.6866C29.0526 37.1304 28.3499 37.4835 27.5363 37.7457C26.7226 38.0079 25.7981 38.1391 24.7625 38.1391C23.7001 38.1391 22.7587 37.9878 21.9384 37.6852C21.118 37.3826 20.4221 36.9892 19.8505 36.5051C19.279 36.0209 18.8251 35.4796 18.4889 34.8812C18.1527 34.2827 17.9308 33.6877 17.8232 33.0959C17.7022 32.437 17.6853 31.8049 17.7728 31.1997C17.8602 30.5945 18.0182 30.0263 18.2468 29.4951C18.4754 28.9639 18.7612 28.4764 19.1041 28.0326C19.4471 27.5888 19.8203 27.1921 20.2237 26.8424C20.5734 26.5331 20.8894 26.2406 21.1718 25.9649C21.4542 25.6892 21.6896 25.4371 21.8779 25.2085C22.1065 24.9529 22.3082 24.7109 22.483 24.4823H27.0219ZM24.8836 30.6752L24.3389 30.1306L23.9153 29.7069C23.7808 29.5725 23.6867 29.4716 23.6329 29.4044C23.5253 29.3102 23.3841 29.2329 23.2093 29.1724C23.0344 29.1118 22.8865 29.1488 22.7655 29.2833C22.6579 29.4312 22.631 29.5758 22.6848 29.717C22.7386 29.8582 22.7991 29.9692 22.8663 30.0499L23.1689 30.3323C23.3168 30.4937 23.4782 30.6685 23.6531 30.8568C23.8548 31.0719 24.0767 31.3006 24.3187 31.5426L24.2986 31.9663H22.9268C22.8058 31.9663 22.7016 32.0133 22.6142 32.1075C22.5268 32.2016 22.483 32.3025 22.483 32.4101C22.483 32.5176 22.5234 32.6118 22.6041 32.6925C22.6848 32.7732 22.7924 32.8135 22.9268 32.8135H24.2986V33.5196H22.9268C22.8058 33.5196 22.7016 33.5565 22.6142 33.6305C22.5268 33.7045 22.483 33.802 22.483 33.923C22.4696 34.0306 22.5066 34.1214 22.594 34.1953C22.6814 34.2693 22.7924 34.3063 22.9268 34.3063H24.2986V34.7097C24.312 34.898 24.3725 35.0291 24.4801 35.1031C24.5877 35.1771 24.7222 35.214 24.8836 35.214C25.045 35.2275 25.1761 35.1771 25.2769 35.0628C25.3778 34.9484 25.4282 34.8308 25.4282 34.7097V34.3063H26.8403C26.9748 34.3063 27.0858 34.276 27.1732 34.2155C27.2606 34.155 27.2976 34.0575 27.2841 33.923C27.2841 33.6406 27.0958 33.4994 26.7193 33.4994H25.4282L25.4484 32.8135L26.7596 32.7933C26.9479 32.8068 27.0824 32.7698 27.1631 32.6824C27.2438 32.595 27.2841 32.4908 27.2841 32.3697C27.2841 32.2621 27.2404 32.1646 27.153 32.0772C27.0656 31.9898 26.9277 31.9461 26.7395 31.9461H25.4282V31.5628C25.6569 31.3476 25.8653 31.1392 26.0536 30.9375C26.215 30.7761 26.3763 30.6113 26.5377 30.4432C26.6991 30.2751 26.8201 30.1575 26.9008 30.0902C27.2101 29.8213 27.2774 29.5859 27.1026 29.3842C27.0084 29.2631 26.8874 29.2026 26.7395 29.2026C26.5915 29.2026 26.457 29.2564 26.336 29.364C26.2688 29.4178 26.1545 29.5153 25.9931 29.6565C25.8317 29.7977 25.6703 29.9423 25.5089 30.0902C25.3207 30.265 25.1122 30.46 24.8836 30.6752Z"/>
</mask>
<path d="M24.7424 20.4477C24.7693 20.4477 24.8029 20.4343 24.8432 20.4074C24.9239 20.3536 25.0315 20.2595 25.166 20.125C25.3274 19.977 25.4888 19.8695 25.6501 19.8022C25.8115 19.735 26.0267 19.7552 26.2957 19.8627C26.4301 19.9031 26.5377 19.9602 26.6184 20.0342C26.6991 20.1082 26.7764 20.1788 26.8504 20.246C26.9244 20.3133 27.0051 20.3704 27.0925 20.4175C27.1799 20.4646 27.2908 20.4881 27.4253 20.4881C27.5598 20.4881 27.6741 20.4679 27.7683 20.4276C27.8624 20.3872 27.9532 20.3502 28.0406 20.3166C28.128 20.283 28.2154 20.2595 28.3028 20.246C28.3902 20.2326 28.4945 20.246 28.6155 20.2864C28.75 20.3402 28.8408 20.4175 28.8878 20.5183C28.9349 20.6192 28.9483 20.7234 28.9282 20.831C28.908 20.9386 28.8609 21.0462 28.787 21.1538C28.713 21.2614 28.6222 21.3488 28.5146 21.416C28.2591 21.5774 28.0641 21.7421 27.9296 21.9103C27.7952 22.0784 27.6607 22.2565 27.5262 22.4448C27.4589 22.539 27.385 22.6465 27.3043 22.7676C27.2236 22.8886 27.1496 23.0097 27.0824 23.1307C27.0017 23.2786 26.9143 23.4198 26.8201 23.5543H22.6444C22.5503 23.3929 22.4562 23.2383 22.362 23.0903C22.2813 22.9559 22.1939 22.8214 22.0998 22.6869C22.0056 22.5524 21.9249 22.4314 21.8577 22.3238C21.7232 22.1221 21.5719 21.9439 21.4038 21.7892C21.2357 21.6346 21.071 21.4967 20.9096 21.3757C20.7348 21.2546 20.6137 21.0899 20.5465 20.8815C20.4792 20.673 20.5398 20.4948 20.728 20.3469C20.8222 20.2796 20.9298 20.2527 21.0508 20.2662C21.1718 20.2796 21.2996 20.3065 21.4341 20.3469C21.5686 20.3872 21.6997 20.4276 21.8274 20.4679C21.9552 20.5083 22.0729 20.515 22.1805 20.4881C22.3687 20.4477 22.5099 20.3771 22.6041 20.2763C22.6982 20.1754 22.8596 20.051 23.0882 19.9031C23.2631 19.7955 23.4581 19.7585 23.6732 19.7921C23.8884 19.8258 24.0498 19.8964 24.1574 20.0039C24.2112 20.0712 24.2683 20.1283 24.3288 20.1754C24.3894 20.2225 24.4532 20.2662 24.5205 20.3065C24.5877 20.3603 24.6617 20.4074 24.7424 20.4477ZM27.0219 24.4823C27.1833 24.6974 27.385 24.9328 27.627 25.1883C27.8288 25.4169 28.0776 25.6758 28.3734 25.9649C28.6693 26.2541 29.0122 26.56 29.4022 26.8828C29.725 27.1652 30.0578 27.498 30.4008 27.8813C30.7437 28.2646 31.0429 28.7118 31.2984 29.2228C31.554 29.7338 31.7322 30.3222 31.833 30.9879C31.9339 31.6536 31.9171 32.3966 31.7826 33.217C31.6616 33.8894 31.4228 34.5248 31.0665 35.1233C30.7101 35.7217 30.236 36.2428 29.6443 36.6866C29.0526 37.1304 28.3499 37.4835 27.5363 37.7457C26.7226 38.0079 25.7981 38.1391 24.7625 38.1391C23.7001 38.1391 22.7587 37.9878 21.9384 37.6852C21.118 37.3826 20.4221 36.9892 19.8505 36.5051C19.279 36.0209 18.8251 35.4796 18.4889 34.8812C18.1527 34.2827 17.9308 33.6877 17.8232 33.0959C17.7022 32.437 17.6853 31.8049 17.7728 31.1997C17.8602 30.5945 18.0182 30.0263 18.2468 29.4951C18.4754 28.9639 18.7612 28.4764 19.1041 28.0326C19.4471 27.5888 19.8203 27.1921 20.2237 26.8424C20.5734 26.5331 20.8894 26.2406 21.1718 25.9649C21.4542 25.6892 21.6896 25.4371 21.8779 25.2085C22.1065 24.9529 22.3082 24.7109 22.483 24.4823H27.0219ZM24.8836 30.6752L24.3389 30.1306L23.9153 29.7069C23.7808 29.5725 23.6867 29.4716 23.6329 29.4044C23.5253 29.3102 23.3841 29.2329 23.2093 29.1724C23.0344 29.1118 22.8865 29.1488 22.7655 29.2833C22.6579 29.4312 22.631 29.5758 22.6848 29.717C22.7386 29.8582 22.7991 29.9692 22.8663 30.0499L23.1689 30.3323C23.3168 30.4937 23.4782 30.6685 23.6531 30.8568C23.8548 31.0719 24.0767 31.3006 24.3187 31.5426L24.2986 31.9663H22.9268C22.8058 31.9663 22.7016 32.0133 22.6142 32.1075C22.5268 32.2016 22.483 32.3025 22.483 32.4101C22.483 32.5176 22.5234 32.6118 22.6041 32.6925C22.6848 32.7732 22.7924 32.8135 22.9268 32.8135H24.2986V33.5196H22.9268C22.8058 33.5196 22.7016 33.5565 22.6142 33.6305C22.5268 33.7045 22.483 33.802 22.483 33.923C22.4696 34.0306 22.5066 34.1214 22.594 34.1953C22.6814 34.2693 22.7924 34.3063 22.9268 34.3063H24.2986V34.7097C24.312 34.898 24.3725 35.0291 24.4801 35.1031C24.5877 35.1771 24.7222 35.214 24.8836 35.214C25.045 35.2275 25.1761 35.1771 25.2769 35.0628C25.3778 34.9484 25.4282 34.8308 25.4282 34.7097V34.3063H26.8403C26.9748 34.3063 27.0858 34.276 27.1732 34.2155C27.2606 34.155 27.2976 34.0575 27.2841 33.923C27.2841 33.6406 27.0958 33.4994 26.7193 33.4994H25.4282L25.4484 32.8135L26.7596 32.7933C26.9479 32.8068 27.0824 32.7698 27.1631 32.6824C27.2438 32.595 27.2841 32.4908 27.2841 32.3697C27.2841 32.2621 27.2404 32.1646 27.153 32.0772C27.0656 31.9898 26.9277 31.9461 26.7395 31.9461H25.4282V31.5628C25.6569 31.3476 25.8653 31.1392 26.0536 30.9375C26.215 30.7761 26.3763 30.6113 26.5377 30.4432C26.6991 30.2751 26.8201 30.1575 26.9008 30.0902C27.2101 29.8213 27.2774 29.5859 27.1026 29.3842C27.0084 29.2631 26.8874 29.2026 26.7395 29.2026C26.5915 29.2026 26.457 29.2564 26.336 29.364C26.2688 29.4178 26.1545 29.5153 25.9931 29.6565C25.8317 29.7977 25.6703 29.9423 25.5089 30.0902C25.3207 30.265 25.1122 30.46 24.8836 30.6752Z" fill="#DCDCE0"/>
<path d="M24.7424 20.4477C24.7693 20.4477 24.8029 20.4343 24.8432 20.4074C24.9239 20.3536 25.0315 20.2595 25.166 20.125C25.3274 19.977 25.4888 19.8695 25.6501 19.8022C25.8115 19.735 26.0267 19.7552 26.2957 19.8627C26.4301 19.9031 26.5377 19.9602 26.6184 20.0342C26.6991 20.1082 26.7764 20.1788 26.8504 20.246C26.9244 20.3133 27.0051 20.3704 27.0925 20.4175C27.1799 20.4646 27.2908 20.4881 27.4253 20.4881C27.5598 20.4881 27.6741 20.4679 27.7683 20.4276C27.8624 20.3872 27.9532 20.3502 28.0406 20.3166C28.128 20.283 28.2154 20.2595 28.3028 20.246C28.3902 20.2326 28.4945 20.246 28.6155 20.2864C28.75 20.3402 28.8408 20.4175 28.8878 20.5183C28.9349 20.6192 28.9483 20.7234 28.9282 20.831C28.908 20.9386 28.8609 21.0462 28.787 21.1538C28.713 21.2614 28.6222 21.3488 28.5146 21.416C28.2591 21.5774 28.0641 21.7421 27.9296 21.9103C27.7952 22.0784 27.6607 22.2565 27.5262 22.4448C27.4589 22.539 27.385 22.6465 27.3043 22.7676C27.2236 22.8886 27.1496 23.0097 27.0824 23.1307C27.0017 23.2786 26.9143 23.4198 26.8201 23.5543H22.6444C22.5503 23.3929 22.4562 23.2383 22.362 23.0903C22.2813 22.9559 22.1939 22.8214 22.0998 22.6869C22.0056 22.5524 21.9249 22.4314 21.8577 22.3238C21.7232 22.1221 21.5719 21.9439 21.4038 21.7892C21.2357 21.6346 21.071 21.4967 20.9096 21.3757C20.7348 21.2546 20.6137 21.0899 20.5465 20.8815C20.4792 20.673 20.5398 20.4948 20.728 20.3469C20.8222 20.2796 20.9298 20.2527 21.0508 20.2662C21.1718 20.2796 21.2996 20.3065 21.4341 20.3469C21.5686 20.3872 21.6997 20.4276 21.8274 20.4679C21.9552 20.5083 22.0729 20.515 22.1805 20.4881C22.3687 20.4477 22.5099 20.3771 22.6041 20.2763C22.6982 20.1754 22.8596 20.051 23.0882 19.9031C23.2631 19.7955 23.4581 19.7585 23.6732 19.7921C23.8884 19.8258 24.0498 19.8964 24.1574 20.0039C24.2112 20.0712 24.2683 20.1283 24.3288 20.1754C24.3894 20.2225 24.4532 20.2662 24.5205 20.3065C24.5877 20.3603 24.6617 20.4074 24.7424 20.4477ZM27.0219 24.4823C27.1833 24.6974 27.385 24.9328 27.627 25.1883C27.8288 25.4169 28.0776 25.6758 28.3734 25.9649C28.6693 26.2541 29.0122 26.56 29.4022 26.8828C29.725 27.1652 30.0578 27.498 30.4008 27.8813C30.7437 28.2646 31.0429 28.7118 31.2984 29.2228C31.554 29.7338 31.7322 30.3222 31.833 30.9879C31.9339 31.6536 31.9171 32.3966 31.7826 33.217C31.6616 33.8894 31.4228 34.5248 31.0665 35.1233C30.7101 35.7217 30.236 36.2428 29.6443 36.6866C29.0526 37.1304 28.3499 37.4835 27.5363 37.7457C26.7226 38.0079 25.7981 38.1391 24.7625 38.1391C23.7001 38.1391 22.7587 37.9878 21.9384 37.6852C21.118 37.3826 20.4221 36.9892 19.8505 36.5051C19.279 36.0209 18.8251 35.4796 18.4889 34.8812C18.1527 34.2827 17.9308 33.6877 17.8232 33.0959C17.7022 32.437 17.6853 31.8049 17.7728 31.1997C17.8602 30.5945 18.0182 30.0263 18.2468 29.4951C18.4754 28.9639 18.7612 28.4764 19.1041 28.0326C19.4471 27.5888 19.8203 27.1921 20.2237 26.8424C20.5734 26.5331 20.8894 26.2406 21.1718 25.9649C21.4542 25.6892 21.6896 25.4371 21.8779 25.2085C22.1065 24.9529 22.3082 24.7109 22.483 24.4823H27.0219ZM24.8836 30.6752L24.3389 30.1306L23.9153 29.7069C23.7808 29.5725 23.6867 29.4716 23.6329 29.4044C23.5253 29.3102 23.3841 29.2329 23.2093 29.1724C23.0344 29.1118 22.8865 29.1488 22.7655 29.2833C22.6579 29.4312 22.631 29.5758 22.6848 29.717C22.7386 29.8582 22.7991 29.9692 22.8663 30.0499L23.1689 30.3323C23.3168 30.4937 23.4782 30.6685 23.6531 30.8568C23.8548 31.0719 24.0767 31.3006 24.3187 31.5426L24.2986 31.9663H22.9268C22.8058 31.9663 22.7016 32.0133 22.6142 32.1075C22.5268 32.2016 22.483 32.3025 22.483 32.4101C22.483 32.5176 22.5234 32.6118 22.6041 32.6925C22.6848 32.7732 22.7924 32.8135 22.9268 32.8135H24.2986V33.5196H22.9268C22.8058 33.5196 22.7016 33.5565 22.6142 33.6305C22.5268 33.7045 22.483 33.802 22.483 33.923C22.4696 34.0306 22.5066 34.1214 22.594 34.1953C22.6814 34.2693 22.7924 34.3063 22.9268 34.3063H24.2986V34.7097C24.312 34.898 24.3725 35.0291 24.4801 35.1031C24.5877 35.1771 24.7222 35.214 24.8836 35.214C25.045 35.2275 25.1761 35.1771 25.2769 35.0628C25.3778 34.9484 25.4282 34.8308 25.4282 34.7097V34.3063H26.8403C26.9748 34.3063 27.0858 34.276 27.1732 34.2155C27.2606 34.155 27.2976 34.0575 27.2841 33.923C27.2841 33.6406 27.0958 33.4994 26.7193 33.4994H25.4282L25.4484 32.8135L26.7596 32.7933C26.9479 32.8068 27.0824 32.7698 27.1631 32.6824C27.2438 32.595 27.2841 32.4908 27.2841 32.3697C27.2841 32.2621 27.2404 32.1646 27.153 32.0772C27.0656 31.9898 26.9277 31.9461 26.7395 31.9461H25.4282V31.5628C25.6569 31.3476 25.8653 31.1392 26.0536 30.9375C26.215 30.7761 26.3763 30.6113 26.5377 30.4432C26.6991 30.2751 26.8201 30.1575 26.9008 30.0902C27.2101 29.8213 27.2774 29.5859 27.1026 29.3842C27.0084 29.2631 26.8874 29.2026 26.7395 29.2026C26.5915 29.2026 26.457 29.2564 26.336 29.364C26.2688 29.4178 26.1545 29.5153 25.9931 29.6565C25.8317 29.7977 25.6703 29.9423 25.5089 30.0902C25.3207 30.265 25.1122 30.46 24.8836 30.6752Z" stroke="url(#paint1_linear_399_283)" stroke-width="0.481063" mask="url(#path-3-inside-1_399_283)"/>
</g>
<defs>
<filter id="filter0_i_399_283" x="10.0348" y="14.4614" width="29.5383" height="29.5383" filterUnits="userSpaceOnUse" color-interpolation-filters="sRGB">
<feFlood flood-opacity="0" result="BackgroundImageFix"/>
<feBlend mode="normal" in="SourceGraphic" in2="BackgroundImageFix" result="shape"/>
<feColorMatrix in="SourceAlpha" type="matrix" values="0 0 0 0 0 0 0 0 0 0 0 0 0 0 0 0 0 0 127 0" result="hardAlpha"/>
<feMorphology radius="2.46304" operator="dilate" in="SourceAlpha" result="effect1_innerShadow_399_283"/>
<feOffset dy="2.46304"/>
<feGaussianBlur stdDeviation="0.615761"/>
<feComposite in2="hardAlpha" operator="arithmetic" k2="-1" k3="1"/>
<feColorMatrix type="matrix" values="0 0 0 0 0.716667 0 0 0 0 1 0 0 0 0 1 0 0 0 1 0"/>
<feBlend mode="normal" in2="shape" result="effect1_innerShadow_399_283"/>
</filter>
<filter id="filter1_dd_399_283" x="0.476471" y="0.059082" width="48.6627" height="57.7844" filterUnits="userSpaceOnUse" color-interpolation-filters="sRGB">
<feFlood flood-opacity="0" result="BackgroundImageFix"/>
<feColorMatrix in="SourceAlpha" type="matrix" values="0 0 0 0 0 0 0 0 0 0 0 0 0 0 0 0 0 0 127 0" result="hardAlpha"/>
<feMorphology radius="2.46304" operator="dilate" in="SourceAlpha" result="effect1_dropShadow_399_283"/>
<feOffset dy="2.46304"/>
<feGaussianBlur stdDeviation="7.38913"/>
<feComposite in2="hardAlpha" operator="out"/>
<feColorMatrix type="matrix" values="0 0 0 0 0.141176 0 0 0 0 0.537255 0 0 0 0 1 0 0 0 0.6 0"/>
<feBlend mode="normal" in2="BackgroundImageFix" result="effect1_dropShadow_399_283"/>
<feColorMatrix in="SourceAlpha" type="matrix" values="0 0 0 0 0 0 0 0 0 0 0 0 0 0 0 0 0 0 127 0" result="hardAlpha"/>
<feMorphology radius="2.46304" operator="dilate" in="SourceAlpha" result="effect2_dropShadow_399_283"/>
<feOffset dy="-2.46304"/>
<feGaussianBlur stdDeviation="7.38913"/>
<feComposite in2="hardAlpha" operator="out"/>
<feColorMatrix type="matrix" values="0 0 0 0 0.141667 0 0 0 0 0.5365 0 0 0 0 1 0 0 0 0.6 0"/>
<feBlend mode="normal" in2="effect1_dropShadow_399_283" result="effect2_dropShadow_399_283"/>
<feBlend mode="normal" in="SourceGraphic" in2="effect2_dropShadow_399_283" result="shape"/>
</filter>
<linearGradient id="paint0_linear_399_283" x1="25.1559" y1="12.9845" x2="25.1559" y2="44.369" gradientUnits="userSpaceOnUse">
<stop offset="0.0001" stop-color="#4194F4"/>
<stop offset="1" stop-color="#0F49A0" stop-opacity="0.5"/>
</linearGradient>
<linearGradient id="paint1_linear_399_283" x1="24.9768" y1="18.8446" x2="24.9768" y2="38.3688" gradientUnits="userSpaceOnUse">
<stop offset="0.0001" stop-color="#4194F4"/>
<stop offset="1" stop-color="#0F49A0" stop-opacity="0.5"/>
</linearGradient>
</defs>
</svg>
