<svg width="56" height="53" viewBox="0 0 56 53" fill="none" xmlns="http://www.w3.org/2000/svg">
<path fill-rule="evenodd" clip-rule="evenodd" d="M41.7425 26.2308C41.7597 25.9589 41.7685 25.6849 41.7685 25.409C41.7685 18.1605 35.733 12.2315 28.2217 12.2315C20.7105 12.2315 14.675 18.1605 14.675 25.409C14.675 25.6849 14.6837 25.9589 14.701 26.2308H13.4671C13.4514 25.9588 13.4435 25.6848 13.4435 25.409C13.4435 17.4511 20.0599 11 28.2217 11C36.3835 11 43 17.4511 43 25.409C43 25.6848 42.9921 25.9588 42.9764 26.2308H41.7425Z" fill="#F5F5FA"/>
<g filter="url(#filter0_b_399_275)">
<circle cx="28.2127" cy="26.2306" r="14.7692" fill="black" fill-opacity="0.4"/>
</g>
<g filter="url(#filter1_i_399_275)">
<circle cx="28.2127" cy="26.2306" r="13.8455" stroke="url(#paint0_linear_399_275)" stroke-width="1.84728"/>
</g>
<g filter="url(#filter2_dd_399_275)">
<path d="M18.1769 26.0574C18.1473 25.8359 18.199 25.5848 18.332 25.3042C18.4501 25.0531 18.6421 24.7466 18.908 24.3848C19.1738 24.0229 19.5726 23.6057 20.1043 23.1331C20.5473 22.7343 21.0458 22.354 21.5996 21.9922C22.1535 21.6303 22.7701 21.3128 23.4495 21.0396C24.1289 20.7663 24.871 20.5485 25.6759 20.386C26.4809 20.2236 27.3485 20.1423 28.279 20.1423C29.2095 20.1423 30.0808 20.2273 30.8931 20.3971C31.7055 20.5669 32.455 20.7959 33.1418 21.0839C33.8285 21.3719 34.4562 21.7005 35.0248 22.0697C35.5934 22.4389 36.1067 22.8229 36.5645 23.2217C37.0519 23.6648 37.4174 24.0599 37.6611 24.4069C37.9048 24.754 38.0857 25.0531 38.2039 25.3042C38.322 25.5848 38.3811 25.8359 38.3811 26.0574H35.7227C35.7227 25.8949 35.7153 25.7177 35.7005 25.5257C35.6857 25.3632 35.6747 25.1823 35.6673 24.9829C35.6599 24.7836 35.6414 24.5805 35.6119 24.3737C35.5824 24.1817 35.5491 23.9897 35.5122 23.7977C35.4753 23.6057 35.4347 23.4285 35.3904 23.266C35.3313 23.0888 35.2796 22.9116 35.2353 22.7343L35.1024 22.6014C34.999 22.498 34.8808 22.402 34.7479 22.3134C34.6741 22.2839 34.5928 22.2433 34.5042 22.1916C34.4156 22.1399 34.3344 22.0993 34.2605 22.0697L33.9947 21.9368C34.039 22.1583 34.0907 22.3946 34.1498 22.6457C34.1941 22.8525 34.2347 23.0851 34.2716 23.3436C34.3085 23.602 34.3418 23.8568 34.3713 24.1079C34.4008 24.3589 34.4193 24.6026 34.4267 24.8389C34.4341 25.0752 34.4451 25.282 34.4599 25.4592C34.4747 25.666 34.4821 25.8654 34.4821 26.0574H32.7762V24.8168H31.8236V25.7472H30.7159V24.8168H29.8298V25.7472H28.6999V24.8168H27.8581V25.7472H26.7947V24.8389H25.8642V25.7472H24.7122V24.8168H23.7596V25.9909L22.0316 26.0131C22.0169 25.8654 22.0169 25.6955 22.0316 25.5035C22.0464 25.3411 22.0612 25.1454 22.0759 24.9165C22.0907 24.6876 22.1203 24.4254 22.1646 24.13C22.1941 23.8494 22.231 23.5762 22.2753 23.3103C22.3196 23.0445 22.3639 22.8082 22.4083 22.6014C22.4673 22.3651 22.519 22.1436 22.5633 21.9368L22.3861 22.0254C22.2384 22.0845 22.0907 22.1509 21.943 22.2248C21.8544 22.2691 21.7695 22.3208 21.6883 22.3799C21.607 22.4389 21.5369 22.4906 21.4778 22.5349C21.4039 22.594 21.3375 22.6457 21.2784 22.69C21.2341 22.882 21.1824 23.074 21.1233 23.266C21.0199 23.6352 20.9461 24.0045 20.9018 24.3737C20.8723 24.5509 20.8501 24.7392 20.8353 24.9386C20.8206 25.138 20.7984 25.3189 20.7689 25.4814C20.7393 25.6734 20.7172 25.8654 20.7024 26.0574H18.1769ZM18.1769 26.6334C18.1473 26.8549 18.199 27.106 18.332 27.3866C18.4501 27.6377 18.6421 27.9442 18.908 28.306C19.1738 28.6678 19.5726 29.0851 20.1043 29.5577C20.5473 29.9565 21.0458 30.3368 21.5996 30.6986C22.1535 31.0605 22.7701 31.378 23.4495 31.6512C24.1289 31.9245 24.871 32.1423 25.6759 32.3048C26.4809 32.4672 27.3485 32.5484 28.279 32.5484C29.2095 32.5484 30.0808 32.4635 30.8931 32.2937C31.7055 32.1238 32.455 31.8949 33.1418 31.6069C33.8285 31.3189 34.4562 30.9903 35.0248 30.6211C35.5934 30.2518 36.1067 29.8678 36.5645 29.4691C37.0519 29.0408 37.4174 28.6494 37.6611 28.2949C37.9048 27.9405 38.0857 27.6377 38.2039 27.3866C38.322 27.106 38.3811 26.8549 38.3811 26.6334H35.7227C35.7227 26.8254 35.7153 27.01 35.7005 27.1872C35.6857 27.3497 35.6747 27.5269 35.6673 27.7189C35.6599 27.9109 35.6414 28.1103 35.6119 28.3171C35.5824 28.5238 35.5491 28.7195 35.5122 28.9042C35.4753 29.0888 35.4347 29.2623 35.3904 29.4248C35.3313 29.602 35.2796 29.7792 35.2353 29.9565L35.1024 30.0894C35.0581 30.1337 35.0064 30.1817 34.9473 30.2334C34.8882 30.2851 34.8218 30.3257 34.7479 30.3552C34.6741 30.3995 34.5928 30.4475 34.5042 30.4992C34.4156 30.5509 34.3344 30.5915 34.2605 30.6211C34.1719 30.6654 34.0833 30.7023 33.9947 30.7318C34.039 30.5103 34.0907 30.274 34.1498 30.0229C34.1941 29.8161 34.2347 29.5872 34.2716 29.3362C34.3085 29.0851 34.3418 28.834 34.3713 28.5829C34.4008 28.3318 34.4193 28.0882 34.4267 27.8518C34.4341 27.6155 34.4451 27.4088 34.4599 27.2315C34.4747 27.0248 34.4821 26.8254 34.4821 26.6334L32.7762 26.6112V27.874H31.8236V26.9435H30.7159V27.874H29.8298V26.9435H28.6999V27.874H27.8581V26.9435H26.7947V27.8518H25.8642V26.9435H24.7122V27.874H23.7596V26.6777L22.0316 26.6555C22.0169 26.818 22.0169 26.9952 22.0316 27.1872C22.0464 27.3497 22.0612 27.5491 22.0759 27.7854C22.0907 28.0217 22.1203 28.2802 22.1646 28.5608C22.2384 29.1515 22.3196 29.6537 22.4083 30.0672C22.4673 30.3183 22.519 30.5472 22.5633 30.754C22.5043 30.7392 22.4452 30.7097 22.3861 30.6654L22.1867 30.5768L21.943 30.4438C21.8544 30.4143 21.7695 30.37 21.6883 30.3109C21.607 30.2518 21.5369 30.2001 21.4778 30.1558C21.4039 30.0968 21.3375 30.0377 21.2784 29.9786C21.2341 29.7866 21.1824 29.5946 21.1233 29.4026C21.079 29.2402 21.0384 29.0592 21.0015 28.8598C20.9646 28.6605 20.9313 28.4722 20.9018 28.2949C20.8723 28.1325 20.8501 27.9515 20.8353 27.7522C20.8206 27.5528 20.7984 27.3718 20.7689 27.2094C20.7393 27.0174 20.7172 26.8254 20.7024 26.6334H18.1769Z" fill="#DCDCE0"/>
</g>
<defs>
<filter id="filter0_b_399_275" x="3.59131" y="1.60925" width="49.2427" height="49.2427" filterUnits="userSpaceOnUse" color-interpolation-filters="sRGB">
<feFlood flood-opacity="0" result="BackgroundImageFix"/>
<feGaussianBlur in="BackgroundImageFix" stdDeviation="4.92609"/>
<feComposite in2="SourceAlpha" operator="in" result="effect1_backgroundBlur_399_275"/>
<feBlend mode="normal" in="SourceGraphic" in2="effect1_backgroundBlur_399_275" result="shape"/>
</filter>
<filter id="filter1_i_399_275" x="13.4435" y="11.4614" width="29.5383" height="29.5383" filterUnits="userSpaceOnUse" color-interpolation-filters="sRGB">
<feFlood flood-opacity="0" result="BackgroundImageFix"/>
<feBlend mode="normal" in="SourceGraphic" in2="BackgroundImageFix" result="shape"/>
<feColorMatrix in="SourceAlpha" type="matrix" values="0 0 0 0 0 0 0 0 0 0 0 0 0 0 0 0 0 0 127 0" result="hardAlpha"/>
<feMorphology radius="2.46304" operator="dilate" in="SourceAlpha" result="effect1_innerShadow_399_275"/>
<feOffset dy="2.46304"/>
<feGaussianBlur stdDeviation="0.615761"/>
<feComposite in2="hardAlpha" operator="arithmetic" k2="-1" k3="1"/>
<feColorMatrix type="matrix" values="0 0 0 0 0.716667 0 0 0 0 1 0 0 0 0 1 0 0 0 1 0"/>
<feBlend mode="normal" in2="shape" result="effect1_innerShadow_399_275"/>
</filter>
<filter id="filter2_dd_399_275" x="0.927521" y="0.437988" width="54.6949" height="51.8147" filterUnits="userSpaceOnUse" color-interpolation-filters="sRGB">
<feFlood flood-opacity="0" result="BackgroundImageFix"/>
<feColorMatrix in="SourceAlpha" type="matrix" values="0 0 0 0 0 0 0 0 0 0 0 0 0 0 0 0 0 0 127 0" result="hardAlpha"/>
<feMorphology radius="2.46304" operator="dilate" in="SourceAlpha" result="effect1_dropShadow_399_275"/>
<feOffset dy="2.46304"/>
<feGaussianBlur stdDeviation="7.38913"/>
<feComposite in2="hardAlpha" operator="out"/>
<feColorMatrix type="matrix" values="0 0 0 0 0.141176 0 0 0 0 0.537255 0 0 0 0 1 0 0 0 0.6 0"/>
<feBlend mode="normal" in2="BackgroundImageFix" result="effect1_dropShadow_399_275"/>
<feColorMatrix in="SourceAlpha" type="matrix" values="0 0 0 0 0 0 0 0 0 0 0 0 0 0 0 0 0 0 127 0" result="hardAlpha"/>
<feMorphology radius="2.46304" operator="dilate" in="SourceAlpha" result="effect2_dropShadow_399_275"/>
<feOffset dy="-2.46304"/>
<feGaussianBlur stdDeviation="7.38913"/>
<feComposite in2="hardAlpha" operator="out"/>
<feColorMatrix type="matrix" values="0 0 0 0 0.141667 0 0 0 0 0.5365 0 0 0 0 1 0 0 0 0.6 0"/>
<feBlend mode="normal" in2="effect1_dropShadow_399_275" result="effect2_dropShadow_399_275"/>
<feBlend mode="normal" in="SourceGraphic" in2="effect2_dropShadow_399_275" result="shape"/>
</filter>
<linearGradient id="paint0_linear_399_275" x1="28.5646" y1="9.98451" x2="28.5646" y2="41.369" gradientUnits="userSpaceOnUse">
<stop offset="0.0001" stop-color="#4194F4"/>
<stop offset="1" stop-color="#0F49A0" stop-opacity="0.5"/>
</linearGradient>
</defs>
</svg>
