<svg width="36" height="52" viewBox="0 0 36 52" fill="none" xmlns="http://www.w3.org/2000/svg">
<g filter="url(#filter0_b_286_431)">
<circle cx="18" cy="18" r="18" fill="white" fill-opacity="0.2"/>
</g>
<path d="M9 17V11H13.5V10C13.5 8.34315 14.8432 7 16.5 7C18.1568 7 19.5 8.34315 19.5 10V11H24V17H26C27.6569 17 29 18.3432 29 20C29 21.6568 27.6569 23 26 23H24V27H9V23H11C12.6568 23 14 21.6568 14 20C14 18.3432 12.6568 17 11 17H9Z" fill="#E1E1E5"/>
<path d="M7.0918 46.7266H8.39258C8.50391 47.5293 9.28906 48.0391 10.4199 48.0391C11.4746 48.0391 12.248 47.4941 12.248 46.7441C12.248 46.0996 11.7559 45.7129 10.6367 45.4492L9.54688 45.1855C8.01758 44.8281 7.32031 44.0898 7.32031 42.8477C7.32031 41.3418 8.55078 40.3398 10.3965 40.3398C12.1133 40.3398 13.3672 41.3418 13.4434 42.7656H12.166C12.043 41.9863 11.3633 41.5 10.3789 41.5C9.3418 41.5 8.65039 41.998 8.65039 42.7598C8.65039 43.3633 9.0957 43.709 10.1973 43.9668L11.1289 44.1953C12.8633 44.5996 13.5781 45.3027 13.5781 46.5742C13.5781 48.1914 12.3242 49.2051 10.3203 49.2051C8.44531 49.2051 7.18555 48.2383 7.0918 46.7266ZM16.5781 45.2793L19.1094 42.6191H20.5977L17.9727 45.3555L20.7734 49H19.2266L17.0352 46.1875L16.4785 46.7148V49H15.2188V40.1289H16.4785V45.2793H16.5781ZM21.957 49V42.6191H23.2109V49H21.957ZM22.584 41.5C22.1152 41.5 21.7695 41.166 21.7695 40.7324C21.7695 40.293 22.1152 39.959 22.584 39.959C23.0527 39.959 23.3984 40.293 23.3984 40.7324C23.3984 41.166 23.0527 41.5 22.584 41.5ZM25.1211 49V40.1289H26.3809V49H25.1211ZM28.332 49V40.1289H29.5918V49H28.332Z" fill="#DCDCE0"/>
<defs>
<filter id="filter0_b_286_431" x="-4" y="-4" width="44" height="44" filterUnits="userSpaceOnUse" color-interpolation-filters="sRGB">
<feFlood flood-opacity="0" result="BackgroundImageFix"/>
<feGaussianBlur in="BackgroundImageFix" stdDeviation="2"/>
<feComposite in2="SourceAlpha" operator="in" result="effect1_backgroundBlur_286_431"/>
<feBlend mode="normal" in="SourceGraphic" in2="effect1_backgroundBlur_286_431" result="shape"/>
</filter>
</defs>
</svg>
