<svg width="305" height="36" viewBox="0 0 305 36" fill="none" xmlns="http://www.w3.org/2000/svg">
<g filter="url(#filter0_b_68_8)">
<path d="M0 8C0 3.58172 3.58172 0 8 0H305V36H0V8Z" fill="white" fill-opacity="0.16"/>
</g>
<g filter="url(#filter1_b_68_8)">
<path d="M4 12C4 7.58172 7.58172 4 12 4H305V32H4V12Z" fill="black" fill-opacity="0.5"/>
<path d="M4.5 12C4.5 7.85786 7.85786 4.5 12 4.5H304.5V31.5H4.5V12Z" stroke="url(#paint0_linear_68_8)"/>
</g>
<path d="M122.922 11.3174H128.037C130.568 11.3174 132.3 13.0488 132.3 15.6064C132.3 18.1201 130.507 19.8428 127.94 19.8428H125.189V24H122.922V11.3174ZM125.189 13.2158V17.9619H127.431C129.048 17.9619 129.997 17.1182 129.997 15.6064C129.997 14.0508 129.074 13.2158 127.439 13.2158H125.189ZM138.347 15.9229C137.046 15.9229 136.132 16.8545 136.035 18.2607H140.562C140.518 16.8369 139.656 15.9229 138.347 15.9229ZM140.579 21.3545H142.645C142.231 23.1035 140.641 24.1934 138.373 24.1934C135.543 24.1934 133.838 22.3213 133.838 19.2275C133.838 16.1338 135.569 14.1914 138.355 14.1914C141.098 14.1914 142.741 16.0107 142.741 19.043V19.7461H136.026V19.8604C136.079 21.46 137.002 22.4619 138.435 22.4619C139.516 22.4619 140.263 22.0664 140.579 21.3545ZM145.624 12.0293H147.795V14.4463H149.852V16.1865H147.795V20.9062C147.795 21.8555 148.199 22.2773 149.113 22.2773C149.421 22.2773 149.588 22.2598 149.852 22.2334V23.9385C149.535 24 149.131 24.0439 148.709 24.0439C146.503 24.0439 145.624 23.2969 145.624 21.4336V16.1865H144.104V14.4463H145.624V12.0293ZM159.326 24H157.059V11.3174H165.145V13.2773H159.326V16.9688H164.644V18.8584H159.326V24ZM167.456 24V14.3848H169.627V24H167.456ZM168.537 12.8203C167.746 12.8203 167.192 12.3105 167.192 11.6162C167.192 10.9219 167.746 10.4121 168.537 10.4121C169.337 10.4121 169.882 10.9219 169.882 11.6162C169.882 12.3105 169.337 12.8203 168.537 12.8203ZM172.422 24V10.667H174.602V24H172.422ZM181.396 15.9229C180.095 15.9229 179.181 16.8545 179.084 18.2607H183.61C183.566 16.8369 182.705 15.9229 181.396 15.9229ZM183.628 21.3545H185.693C185.28 23.1035 183.689 24.1934 181.422 24.1934C178.592 24.1934 176.887 22.3213 176.887 19.2275C176.887 16.1338 178.618 14.1914 181.404 14.1914C184.146 14.1914 185.79 16.0107 185.79 19.043V19.7461H179.075V19.8604C179.128 21.46 180.051 22.4619 181.483 22.4619C182.564 22.4619 183.312 22.0664 183.628 21.3545Z" fill="white"/>
<defs>
<filter id="filter0_b_68_8" x="-4" y="-4" width="313" height="44" filterUnits="userSpaceOnUse" color-interpolation-filters="sRGB">
<feFlood flood-opacity="0" result="BackgroundImageFix"/>
<feGaussianBlur in="BackgroundImageFix" stdDeviation="2"/>
<feComposite in2="SourceAlpha" operator="in" result="effect1_backgroundBlur_68_8"/>
<feBlend mode="normal" in="SourceGraphic" in2="effect1_backgroundBlur_68_8" result="shape"/>
</filter>
<filter id="filter1_b_68_8" x="0" y="0" width="309" height="36" filterUnits="userSpaceOnUse" color-interpolation-filters="sRGB">
<feFlood flood-opacity="0" result="BackgroundImageFix"/>
<feGaussianBlur in="BackgroundImageFix" stdDeviation="2"/>
<feComposite in2="SourceAlpha" operator="in" result="effect1_backgroundBlur_68_8"/>
<feBlend mode="normal" in="SourceGraphic" in2="effect1_backgroundBlur_68_8" result="shape"/>
</filter>
<linearGradient id="paint0_linear_68_8" x1="4" y1="5.90909" x2="24.0983" y2="94.1041" gradientUnits="userSpaceOnUse">
<stop stop-color="#67DEFF"/>
<stop offset="1" stop-color="#EE66F9"/>
</linearGradient>
</defs>
</svg>
