<svg width="36" height="50" viewBox="0 0 36 50" fill="none" xmlns="http://www.w3.org/2000/svg">
<path d="M6.95508 49H5.51367L2.49023 40.5449H3.91992L6.19922 47.3594H6.29883L8.56641 40.5449H9.96094L6.95508 49ZM13.3535 49.123C11.4844 49.123 10.3418 47.875 10.3418 45.8066C10.3418 43.75 11.4902 42.4961 13.3535 42.4961C15.2109 42.4961 16.3594 43.75 16.3594 45.8066C16.3594 47.875 15.2168 49.123 13.3535 49.123ZM13.3535 48.0039C14.4434 48.0039 15.0645 47.1953 15.0645 45.8066C15.0645 44.4238 14.4434 43.6152 13.3535 43.6152C12.2578 43.6152 11.6426 44.4238 11.6426 45.8066C11.6426 47.2012 12.2578 48.0039 13.3535 48.0039ZM17.9004 49V42.6191H19.1543V49H17.9004ZM18.5273 41.5C18.0586 41.5 17.7129 41.166 17.7129 40.7324C17.7129 40.293 18.0586 39.959 18.5273 39.959C18.9961 39.959 19.3418 40.293 19.3418 40.7324C19.3418 41.166 18.9961 41.5 18.5273 41.5ZM26.4082 44.7051H25.1836C25.0371 44.084 24.5215 43.6211 23.6777 43.6211C22.623 43.6211 21.9785 44.4297 21.9785 45.7891C21.9785 47.1719 22.6289 47.998 23.6777 47.998C24.4746 47.998 25.0195 47.6348 25.1836 46.9492H26.4082C26.2441 48.2324 25.2598 49.123 23.6836 49.123C21.8262 49.123 20.6895 47.8691 20.6895 45.7891C20.6895 43.7441 21.8203 42.4961 23.6777 42.4961C25.2773 42.4961 26.2441 43.4277 26.4082 44.7051ZM30.4688 43.5684C29.5371 43.5684 28.8867 44.2246 28.8164 45.2207H32.0391C32.0098 44.2188 31.4004 43.5684 30.4688 43.5684ZM32.0332 47.2773H33.2461C32.959 48.4199 31.9395 49.123 30.4805 49.123C28.6523 49.123 27.5332 47.8691 27.5332 45.8301C27.5332 43.791 28.6758 42.4961 30.4746 42.4961C32.25 42.4961 33.3223 43.709 33.3223 45.7129V46.1523H28.8164V46.2227C28.8574 47.3418 29.5078 48.0508 30.5156 48.0508C31.2773 48.0508 31.7988 47.7754 32.0332 47.2773Z" fill="#DCDCE0"/>
<g filter="url(#filter0_b_395_83)">
<circle cx="18" cy="18" r="18" fill="#333D50" fill-opacity="0.75"/>
</g>
<path d="M8 20.025C8 23.5042 10.8208 26.325 14.3 26.325C17.7792 26.325 19.55 24.225 20.075 22.65L20.8824 20.025L24.275 9L29 26.325M27.2817 20.025H20.8835" stroke="#E1E1E5" stroke-width="2.12121" stroke-linecap="round" stroke-linejoin="round"/>
<path d="M17.4499 11.85C17.4499 11.0145 17.118 10.2133 16.5273 9.62256C15.9365 9.03183 15.1353 8.69995 14.2999 8.69995C13.4645 8.69995 12.6633 9.03183 12.0725 9.62256C11.4818 10.2133 11.1499 11.0145 11.1499 11.85V19.7249C11.1499 20.5604 11.4818 21.3616 12.0725 21.9523C12.6633 22.5431 13.4645 22.8749 14.2999 22.8749C15.1353 22.8749 15.9365 22.5431 16.5273 21.9523C17.118 21.3616 17.4499 20.5604 17.4499 19.7249V11.85Z" fill="#E1E1E5" stroke="#E1E1E5" stroke-width="1.5" stroke-linecap="round" stroke-linejoin="round"/>
<defs>
<filter id="filter0_b_395_83" x="-4" y="-4" width="44" height="44" filterUnits="userSpaceOnUse" color-interpolation-filters="sRGB">
<feFlood flood-opacity="0" result="BackgroundImageFix"/>
<feGaussianBlur in="BackgroundImageFix" stdDeviation="2"/>
<feComposite in2="SourceAlpha" operator="in" result="effect1_backgroundBlur_395_83"/>
<feBlend mode="normal" in="SourceGraphic" in2="effect1_backgroundBlur_395_83" result="shape"/>
</filter>
</defs>
</svg>
